<svg width="500" height="500" viewBox="0 0 500 500" fill="none" xmlns="http://www.w3.org/2000/svg"><path d="M34.5938 440.051C30.6569 440.051 27.3761 437.918 24.7514 433.653C22.7829 431.685 20.6504 428.568 18.3539 424.303C16.0573 420.038 15.2371 413.148 15.8933 403.634C16.8775 393.792 20.4864 379.52 26.7199 360.82C30.0007 348.352 32.6253 339.33 34.5938 333.753C36.5623 327.847 37.5465 323.582 37.5465 320.958C37.5465 317.349 37.8746 314.396 38.5308 312.1C39.515 309.475 40.0071 307.014 40.0071 304.718C41.9756 304.718 43.9441 302.913 45.9126 299.304C47.8811 295.696 49.5215 290.774 50.8338 284.541C52.1461 278.964 53.2944 274.534 54.2786 271.254C55.591 267.645 56.2471 265.184 56.2471 263.872C57.8875 261.247 59.5279 257.146 61.1683 251.569C63.1368 245.991 66.0895 239.266 70.0265 231.392C72.6511 221.549 75.6038 211.379 78.8846 200.88C82.1654 190.054 85.4462 180.047 88.727 170.861C92.3359 161.347 95.2887 153.965 97.5852 148.716C101.194 138.545 103.983 131.491 105.951 127.555C107.92 123.289 107.92 120.501 105.951 119.188C103.655 117.548 102.506 113.447 102.506 106.885C102.834 99.9958 105.951 94.0904 111.857 89.1692C115.466 84.9041 120.059 81.9514 125.636 80.311C131.213 78.3425 137.611 77.3583 144.829 77.3583C152.047 77.3583 159.592 77.6864 167.466 78.3425C173.372 78.6706 179.605 78.8346 186.167 78.8346C193.057 78.8346 197.322 78.8346 198.962 78.8346C201.915 80.1469 205.524 81.6233 209.789 83.2637C214.054 84.9041 217.827 86.5445 221.107 88.1849C224.716 89.4972 226.521 90.6455 226.521 91.6298C226.521 93.5982 227.177 94.9106 228.489 95.5667C230.13 95.8948 231.77 96.2229 233.41 96.5509C235.707 96.5509 239.48 98.6835 244.729 102.949C249.978 106.885 255.228 111.807 260.477 117.712C266.054 123.289 269.991 128.867 272.288 134.444C274.913 140.022 277.045 145.271 278.685 150.192C280.654 155.113 280.818 162.167 279.178 171.353C278.849 176.274 278.029 181.196 276.717 186.117C275.733 191.038 274.584 194.319 273.272 195.959C271.304 197.272 269.499 198.912 267.859 200.88C266.218 202.849 265.398 204.653 265.398 206.294C265.398 207.606 264.086 210.887 261.461 216.136C258.837 221.057 255.556 226.799 251.619 233.36C247.682 239.594 243.417 245.827 238.824 252.061C234.231 258.294 229.966 263.216 226.029 266.825C221.764 272.074 216.678 276.995 210.773 281.588C205.195 286.181 200.11 289.954 195.517 292.907C186.987 296.844 177.145 300.617 165.99 304.226C155.163 307.835 144.665 310.787 134.494 313.084C124.324 315.052 116.122 315.873 109.888 315.544C100.374 316.857 94.1404 318.169 91.1876 319.481C88.2349 320.466 86.1024 323.254 84.7901 327.847C83.1497 332.112 81.5093 336.542 79.8689 341.135C78.5566 345.728 77.9004 349.009 77.9004 350.977C77.2442 352.289 75.7679 355.898 73.4713 361.804C71.5028 367.709 69.0422 374.599 66.0895 382.473C63.4649 390.347 61.0043 398.221 58.7077 406.095C56.4112 413.968 54.6067 420.694 53.2944 426.271C51.9821 430.865 49.1934 434.309 44.9283 436.606C40.9914 438.903 37.5465 440.051 34.5938 440.051ZM104.475 275.683C105.787 276.995 110.052 277.159 117.27 276.175C124.488 275.191 133.182 272.73 143.352 268.793C149.914 266.496 156.476 263.708 163.037 260.427C169.927 257.146 176.488 253.537 182.722 249.6C186.003 247.304 189.448 244.515 193.057 241.234C196.665 237.625 201.751 231.72 208.312 223.518C209.296 221.878 210.937 218.761 213.233 214.168C215.858 209.246 218.155 204.653 220.123 200.388C223.076 195.795 226.029 189.07 228.981 180.211C231.934 171.025 232.59 163.479 230.95 157.574C229.309 149.044 226.029 141.99 221.107 136.413C216.186 130.507 209.953 126.242 202.407 123.618C195.189 122.305 189.12 121.485 184.198 121.157C179.605 120.829 174.52 121.157 168.943 122.141C163.693 123.782 159.92 126.078 157.624 129.031C155.655 131.984 152.703 138.217 148.766 147.731C146.469 152.325 143.188 158.722 138.923 166.924C134.658 174.798 131.049 182.836 128.097 191.038C122.191 212.691 116.942 229.259 112.349 240.742C108.084 252.225 105.295 259.771 103.983 263.38C104.311 266.989 104.147 269.613 103.491 271.254C102.834 272.566 103.163 274.042 104.475 275.683ZM226.148 437.098C223.195 435.786 219.75 433.161 215.813 429.224C209.252 423.647 204.823 416.593 202.526 408.063C200.558 399.205 200.393 390.675 202.034 382.473C205.971 372.63 210.236 365.905 214.829 362.296C219.75 358.359 224.835 356.718 230.085 357.375C235.662 357.703 240.911 359.671 245.833 363.28C243.536 370.17 241.732 376.403 240.419 381.981C239.107 387.558 239.599 392.315 241.896 396.252C244.192 400.189 249.605 403.306 258.136 405.602C264.697 406.259 270.275 406.587 274.868 406.587C279.789 406.259 285.53 405.931 292.092 405.602C299.638 404.946 305.543 404.126 309.808 403.142C314.401 402.158 318.502 401.173 322.111 400.189C331.297 397.564 339.171 393.956 345.733 389.362C352.295 384.441 357.708 378.864 361.973 372.63C364.598 368.037 366.402 363.936 367.386 360.327C368.37 356.39 368.863 352.289 368.863 348.024C368.863 343.103 368.37 338.838 367.386 335.229C366.402 331.292 364.598 326.699 361.973 321.45C359.676 315.873 355.903 308.163 350.654 298.32C350.326 296.024 347.701 292.087 342.78 286.509C338.187 280.932 333.594 275.519 329.001 270.269C326.704 265.02 323.752 259.115 320.143 252.553C316.534 245.663 312.433 240.742 307.84 237.789C306.527 235.821 305.051 232.704 303.411 228.439C302.098 224.174 300.95 221.878 299.966 221.549C299.966 221.549 299.474 220.729 298.489 219.089C297.833 217.448 297.013 215.48 296.029 213.183C291.764 203.669 291.6 191.858 295.537 177.751C299.474 163.315 306.691 149.864 317.19 137.397C320.799 131.491 325.392 125.586 330.969 119.681C336.547 113.447 341.632 108.362 346.225 104.425C351.146 100.16 354.263 98.0273 355.575 98.0273C355.575 98.0273 356.56 97.6992 358.528 97.0431C360.825 96.0588 363.613 94.4184 366.894 92.1219C370.503 89.8253 373.948 88.0209 377.229 86.7086C380.509 85.0682 385.267 83.5918 391.5 82.2795L394.453 81.7874L396.421 81.2952C401.999 79.6548 406.592 78.5065 410.201 77.8504C413.81 76.8661 417.254 76.374 420.535 76.374C423.816 76.374 427.753 76.5381 432.346 76.8661C447.11 80.8031 458.428 86.2164 466.302 93.1061C474.504 99.6677 478.933 111.643 479.59 129.031L475.653 142.81L467.287 152.161C466.302 151.832 463.678 152.817 459.413 155.113C455.476 157.41 449.898 159.214 442.681 160.527C435.791 161.511 426.933 159.87 416.106 155.605C414.794 155.277 414.302 154.457 414.63 153.145C414.958 151.504 416.27 150.52 418.567 150.192C419.551 149.536 421.027 148.06 422.996 145.763C425.292 143.466 427.425 140.842 429.393 137.889C433.658 131.984 434.643 127.555 432.346 124.602C430.378 121.321 426.441 119.681 420.535 119.681C409.381 120.009 398.718 122.141 388.547 126.078C378.377 129.687 369.027 136.249 360.497 145.763C353.607 154.621 348.522 162.495 345.241 169.385C341.96 175.946 340.32 182.016 340.32 187.593C340.976 189.89 341.304 193.335 341.304 197.928C341.632 202.193 342.944 206.622 345.241 211.215C356.067 226.307 364.434 237.953 370.339 246.155C376.573 254.357 380.838 260.263 383.134 263.872C383.79 264.856 384.282 265.676 384.61 266.332C384.939 266.989 385.103 267.645 385.103 268.301C386.415 270.597 388.219 273.878 390.516 278.143C392.812 282.408 394.945 286.509 396.913 290.446C398.882 294.383 399.866 297.008 399.866 298.32C399.866 298.32 400.358 299.304 401.343 301.273C402.327 302.913 403.475 305.374 404.787 308.655C406.428 311.607 407.904 315.873 409.216 321.45C410.857 326.699 412.169 332.441 413.153 338.674C414.138 344.58 414.63 349.993 414.63 354.914C414.63 358.851 413.646 363.936 411.677 370.17C409.709 376.075 407.084 382.145 403.803 388.378C400.85 394.284 397.078 399.205 392.484 403.142C387.891 407.079 381.166 411.836 372.307 417.413C363.449 422.991 353.771 428.076 343.272 432.669C332.774 437.262 322.603 440.379 312.761 442.019C302.919 443.66 293.568 444.972 284.71 445.956C276.18 446.941 268.142 447.269 260.596 446.941C253.378 446.941 246.817 446.12 240.911 444.48C235.006 442.84 230.085 440.379 226.148 437.098Z" fill="url(#pocket-shader-favicon-svg-linear-gradient)"/><defs><linearGradient id="pocket-shader-favicon-svg-linear-gradient" x1="6.20091" y1="250" x2="471.74" y2="250" gradientUnits="userSpaceOnUse"><stop stop-color="#5F00D7"/><stop offset="1" stop-color="#F44D4D"/></linearGradient></defs></svg>
