<svg width="250" height="250" viewBox="0 0 250 250" fill="none" xmlns="http://www.w3.org/2000/svg">
<path d="M17.2969 220.025C15.3284 220.025 13.688 218.959 12.3757 216.827C11.3915 215.842 10.3252 214.284 9.17693 212.152C8.02865 210.019 7.61855 206.574 7.94663 201.817C8.43875 196.896 10.2432 189.76 13.36 180.41C15.0004 174.176 16.3127 169.665 17.2969 166.876C18.2812 163.924 18.7733 161.791 18.7733 160.479C18.7733 158.674 18.9373 157.198 19.2654 156.05C19.7575 154.737 20.0036 153.507 20.0036 152.359C20.9878 152.359 21.9721 151.457 22.9563 149.652C23.9405 147.848 24.7607 145.387 25.4169 142.27C26.0731 139.482 26.6472 137.267 27.1393 135.627C27.7955 133.822 28.1236 132.592 28.1236 131.936C28.9438 130.624 29.764 128.573 30.5842 125.784C31.5684 122.996 33.0448 119.633 35.0132 115.696C36.3256 110.775 37.8019 105.689 39.4423 100.44C41.0827 95.0269 42.7231 90.0237 44.3635 85.4306C46.168 80.6734 47.6443 76.9825 48.7926 74.3578C50.597 69.2726 51.9914 65.7457 52.9756 63.7773C53.9599 61.6447 53.9599 60.2504 52.9756 59.5942C51.8273 58.774 51.2532 56.7235 51.2532 53.4427C51.4172 49.9979 52.9756 47.0452 55.9283 44.5846C57.7328 42.4521 60.0294 40.9757 62.818 40.1555C65.6067 39.1713 68.8055 38.6791 72.4144 38.6791C76.0233 38.6791 79.7962 38.8432 83.7331 39.1713C86.6859 39.3353 89.8026 39.4173 93.0834 39.4173C96.5283 39.4173 98.6608 39.4173 99.481 39.4173C100.957 40.0735 102.762 40.8117 104.894 41.6319C107.027 42.452 108.913 43.2722 110.554 44.0924C112.358 44.7486 113.26 45.3228 113.26 45.8149C113.26 46.7991 113.588 47.4553 114.245 47.7834C115.065 47.9474 115.885 48.1114 116.705 48.2755C117.853 48.2755 119.74 49.3417 122.365 51.4743C124.989 53.4427 127.614 55.9033 130.238 58.8561C133.027 61.6447 134.996 64.4334 136.144 67.2221C137.456 70.0108 138.523 72.6354 139.343 75.096C140.327 77.5566 140.409 81.0835 139.589 85.6766C139.425 88.1372 139.015 90.5978 138.358 93.0584C137.866 95.519 137.292 97.1594 136.636 97.9796C135.652 98.6358 134.75 99.456 133.929 100.44C133.109 101.424 132.699 102.327 132.699 103.147C132.699 103.803 132.043 105.443 130.731 108.068C129.418 110.529 127.778 113.399 125.809 116.68C123.841 119.797 121.708 122.914 119.412 126.03C117.115 129.147 114.983 131.608 113.014 133.412C110.882 136.037 108.339 138.498 105.386 140.794C102.598 143.091 100.055 144.977 97.7586 146.453C93.4935 148.422 88.5723 150.308 82.995 152.113C77.5816 153.917 72.3324 155.394 67.2471 156.542C62.1619 157.526 58.0609 157.936 54.9441 157.772C50.1869 158.428 47.0702 159.085 45.5938 159.741C44.1175 160.233 43.0512 161.627 42.395 163.924C41.5748 166.056 40.7546 168.271 39.9344 170.567C39.2783 172.864 38.9502 174.504 38.9502 175.489C38.6221 176.145 37.8839 177.949 36.7357 180.902C35.7514 183.855 34.5211 187.299 33.0448 191.236C31.7324 195.173 30.5021 199.11 29.3539 203.047C28.2056 206.984 27.3034 210.347 26.6472 213.136C25.991 215.432 24.5967 217.155 22.4642 218.303C20.4957 219.451 18.7733 220.025 17.2969 220.025ZM52.2374 137.841C52.8936 138.498 55.0261 138.58 58.635 138.087C62.2439 137.595 66.591 136.365 71.6762 134.397C74.957 133.248 78.2378 131.854 81.5186 130.213C84.9634 128.573 88.2442 126.769 91.361 124.8C93.0014 123.652 94.7238 122.258 96.5283 120.617C98.3327 118.813 100.875 115.86 104.156 111.759C104.648 110.939 105.468 109.38 106.617 107.084C107.929 104.623 109.077 102.327 110.062 100.194C111.538 97.8976 113.014 94.5348 114.491 90.1057C115.967 85.5126 116.295 81.7397 115.475 78.7869C114.655 74.5219 113.014 70.995 110.554 68.2063C108.093 65.2536 104.976 63.1211 101.203 61.8088C97.5945 61.1526 94.5598 60.7425 92.0992 60.5785C89.8026 60.4144 87.26 60.5785 84.4713 61.0706C81.8467 61.8908 79.9602 63.0391 78.8119 64.5154C77.8277 65.9918 76.3513 69.1086 74.3829 73.8657C73.2346 76.1623 71.5942 79.3611 69.4617 83.4621C67.3291 87.399 65.5247 91.418 64.0483 95.519C61.0956 106.346 58.471 114.63 56.1744 120.371C54.0419 126.112 52.6475 129.885 51.9914 131.69C52.1554 133.494 52.0734 134.807 51.7453 135.627C51.4172 136.283 51.5813 137.021 52.2374 137.841ZM113.074 218.549C111.598 217.893 109.875 216.581 107.907 214.612C104.626 211.823 102.411 208.297 101.263 204.032C100.279 199.602 100.197 195.337 101.017 191.236C102.985 186.315 105.118 182.952 107.414 181.148C109.875 179.179 112.418 178.359 115.042 178.687C117.831 178.851 120.456 179.836 122.916 181.64C121.768 185.085 120.866 188.202 120.21 190.99C119.553 193.779 119.8 196.158 120.948 198.126C122.096 200.095 124.803 201.653 129.068 202.801C132.349 203.129 135.137 203.293 137.434 203.293C139.894 203.129 142.765 202.965 146.046 202.801C149.819 202.473 152.772 202.063 154.904 201.571C157.201 201.079 159.251 200.587 161.056 200.095C165.649 198.782 169.586 196.978 172.866 194.681C176.147 192.221 178.854 189.432 180.986 186.315C182.299 184.019 183.201 181.968 183.693 180.164C184.185 178.195 184.431 176.145 184.431 174.012C184.431 171.552 184.185 169.419 183.693 167.615C183.201 165.646 182.299 163.35 180.986 160.725C179.838 157.936 177.952 154.081 175.327 149.16C175.163 148.012 173.851 146.043 171.39 143.255C169.094 140.466 166.797 137.759 164.5 135.135C163.352 132.51 161.876 129.557 160.071 126.277C158.267 122.832 156.216 120.371 153.92 118.895C153.264 117.91 152.526 116.352 151.705 114.22C151.049 112.087 150.475 110.939 149.983 110.775C149.983 110.775 149.737 110.365 149.245 109.544C148.917 108.724 148.507 107.74 148.014 106.592C145.882 101.835 145.8 95.9291 147.768 88.8754C149.737 81.6576 153.346 74.932 158.595 68.6985C160.399 65.7457 162.696 62.793 165.485 59.8403C168.273 56.7235 170.816 54.1809 173.113 52.2124C175.573 50.0799 177.132 49.0137 177.788 49.0137C177.788 49.0137 178.28 48.8496 179.264 48.5215C180.412 48.0294 181.807 47.2092 183.447 46.0609C185.252 44.9127 186.974 44.0104 188.614 43.3543C190.255 42.5341 192.633 41.7959 195.75 41.1397L197.226 40.8937L198.211 40.6476C200.999 39.8274 203.296 39.2533 205.1 38.9252C206.905 38.4331 208.627 38.187 210.268 38.187C211.908 38.187 213.877 38.269 216.173 38.4331C223.555 40.4016 229.214 43.1082 233.151 46.5531C237.252 49.8339 239.467 55.8213 239.795 64.5154L237.826 71.4051L233.643 76.0803C233.151 75.9162 231.839 76.4083 229.706 77.5566C227.738 78.7049 224.949 79.6071 221.34 80.2633C217.895 80.7554 213.466 79.9352 208.053 77.8027C207.397 77.6386 207.151 77.2285 207.315 76.5724C207.479 75.7522 208.135 75.2601 209.283 75.096C209.776 74.7679 210.514 74.0298 211.498 72.8815C212.646 71.7332 213.712 70.4209 214.697 68.9445C216.829 65.9918 217.321 63.7773 216.173 62.3009C215.189 60.6605 213.22 59.8403 210.268 59.8403C204.69 60.0043 199.359 61.0706 194.274 63.0391C189.188 64.8435 184.513 68.1243 180.248 72.8815C176.803 77.3106 174.261 81.2475 172.62 84.6924C170.98 87.9732 170.16 91.0079 170.16 93.7966C170.488 94.9449 170.652 96.6673 170.652 98.9639C170.816 101.096 171.472 103.311 172.62 105.607C178.034 113.153 182.217 118.977 185.169 123.078C188.286 127.179 190.419 130.131 191.567 131.936C191.895 132.428 192.141 132.838 192.305 133.166C192.469 133.494 192.551 133.822 192.551 134.15C193.207 135.299 194.11 136.939 195.258 139.072C196.406 141.204 197.472 143.255 198.457 145.223C199.441 147.192 199.933 148.504 199.933 149.16C199.933 149.16 200.179 149.652 200.671 150.636C201.163 151.457 201.738 152.687 202.394 154.327C203.214 155.804 203.952 157.936 204.608 160.725C205.428 163.35 206.085 166.22 206.577 169.337C207.069 172.29 207.315 174.996 207.315 177.457C207.315 179.426 206.823 181.968 205.839 185.085C204.854 188.038 203.542 191.072 201.902 194.189C200.425 197.142 198.539 199.602 196.242 201.571C193.946 203.539 190.583 205.918 186.154 208.707C181.725 211.495 176.885 214.038 171.636 216.335C166.387 218.631 161.302 220.189 156.38 221.01C151.459 221.83 146.784 222.486 142.355 222.978C138.09 223.47 134.071 223.634 130.298 223.47C126.689 223.47 123.408 223.06 120.456 222.24C117.503 221.42 115.042 220.189 113.074 218.549Z" fill="url(#paint0_linear_1183_3)"/>
<defs>
<linearGradient id="paint0_linear_1183_3" x1="-11" y1="125" x2="263.203" y2="125" gradientUnits="userSpaceOnUse">
<stop stop-color="#8500D7"/>
<stop offset="1" stop-color="#F44D4D"/>
</linearGradient>
</defs>
</svg>
