<?xml version="1.0" standalone="no"?>
<!DOCTYPE svg PUBLIC "-//W3C//DTD SVG 20010904//EN"
 "http://www.w3.org/TR/2001/REC-SVG-20010904/DTD/svg10.dtd">
<svg version="1.0" xmlns="http://www.w3.org/2000/svg"
 width="500.000000pt" height="500.000000pt" viewBox="0 0 500.000000 500.000000"
 preserveAspectRatio="xMidYMid meet">
<metadata>
Created by potrace 1.14, written by Peter Selinger 2001-2017
</metadata>
<g transform="translate(0.000000,500.000000) scale(0.100000,-0.100000)"
fill="#000000" stroke="none">
<path d="M4155 4233 c-11 -2 -67 -16 -124 -30 -58 -14 -116 -27 -130 -29 -70
-12 -158 -49 -246 -104 -33 -21 -71 -41 -85 -45 -76 -23 -274 -215 -380 -370
-19 -28 -38 -54 -42 -60 -4 -5 -18 -23 -31 -40 -106 -135 -187 -361 -187 -521
0 -87 28 -188 69 -244 9 -14 26 -50 37 -80 12 -33 36 -72 62 -100 62 -64 80
-91 142 -211 30 -59 66 -120 80 -136 14 -15 45 -53 70 -83 25 -30 55 -66 67
-79 31 -35 175 -329 201 -411 6 -19 15 -49 21 -66 12 -40 11 -153 -1 -207 -35
-159 -191 -322 -373 -390 -59 -23 -212 -62 -275 -71 -112 -17 -391 -25 -440
-13 -106 25 -172 73 -187 134 -10 42 3 125 36 230 22 73 22 72 -65 102 -67 22
-134 22 -180 -2 -33 -17 -104 -83 -104 -97 0 -5 -6 -15 -12 -22 -34 -35 -61
-115 -65 -193 -12 -201 61 -343 238 -461 134 -89 206 -105 444 -99 94 2 188 7
210 10 22 4 81 13 130 21 50 8 104 17 120 20 254 42 687 277 836 454 31 37 93
165 123 254 38 113 40 187 11 359 -14 81 -59 223 -95 301 -22 47 -40 89 -40
94 0 4 -13 32 -28 62 -16 30 -54 103 -85 162 -30 58 -79 139 -109 180 -185
250 -316 439 -331 476 -34 84 -39 230 -12 312 34 101 155 285 240 363 51 47
113 87 188 122 130 60 362 95 428 65 40 -18 60 -60 49 -101 -11 -41 -120 -180
-148 -190 -12 -5 -25 -17 -31 -27 -9 -18 -6 -22 29 -36 22 -8 52 -18 67 -21
16 -2 42 -9 60 -14 72 -21 209 4 308 58 22 11 45 21 51 21 7 0 30 21 52 48
122 146 86 429 -70 553 -110 86 -273 150 -396 153 -42 1 -86 1 -97 -1z"/>
<path d="M1328 4214 c-37 -7 -86 -21 -111 -32 -54 -24 -151 -119 -173 -169
-25 -57 -21 -141 10 -198 14 -27 24 -51 22 -54 -13 -23 -42 -93 -82 -196 -25
-66 -51 -131 -57 -145 -6 -14 -11 -27 -12 -30 0 -3 -15 -42 -33 -86 -37 -96
-172 -529 -186 -599 -1 -5 -17 -41 -35 -80 -18 -38 -46 -108 -63 -155 -16 -47
-34 -89 -38 -95 -4 -5 -10 -21 -12 -35 -17 -81 -81 -296 -98 -330 -11 -21 -29
-44 -39 -49 -21 -12 -39 -75 -45 -157 -2 -28 -25 -122 -51 -210 -25 -87 -66
-224 -90 -304 -98 -330 -103 -460 -21 -583 73 -110 117 -127 212 -83 72 34
111 93 128 196 1 8 10 40 19 70 9 30 31 102 48 160 18 57 59 177 92 265 32 88
65 185 72 216 20 92 84 248 109 264 32 21 151 46 241 50 122 6 162 12 289 44
232 59 485 152 568 208 218 149 406 362 571 648 48 83 100 195 92 195 -13 0
26 58 59 88 20 18 38 42 41 55 55 240 59 336 18 450 -58 161 -96 220 -230 353
-65 65 -169 144 -190 144 -36 0 -82 23 -87 43 -6 25 -57 52 -196 106 -80 31
-71 30 -580 45 -52 2 -125 -3 -162 -10z m635 -441 c46 -8 103 -26 131 -41 137
-74 229 -242 220 -402 -3 -74 -40 -194 -89 -290 -173 -344 -253 -445 -450
-568 -72 -44 -247 -126 -357 -166 -180 -65 -341 -91 -372 -61 -27 28 -14 101
55 285 51 140 95 269 128 380 68 227 84 267 192 487 62 126 122 248 134 273
55 109 185 141 408 103z"/>
</g>
</svg>
