<svg xmlns="http://www.w3.org/2000/svg" width="500" height="100%" fill="none" viewBox="0 0 325 182">
	<path
		fill="url(#a)"
		d="M19.78 73.598c-.57 0-1.045-.309-1.425-.926-.285-.285-.594-.736-.926-1.353-.333-.618-.451-1.615-.356-2.992.142-1.424.664-3.49 1.567-6.197.474-1.804.854-3.11 1.14-3.917.284-.855.427-1.472.427-1.852 0-.522.047-.95.142-1.282a3.05 3.05 0 0 0 .214-1.068c.285 0 .57-.262.854-.784.285-.522.523-1.234.713-2.137.19-.807.356-1.448.498-1.923.19-.522.285-.878.285-1.068.238-.38.475-.974.712-1.78.285-.808.713-1.782 1.283-2.921.38-1.425.807-2.897 1.282-4.416a94.11 94.11 0 0 1 1.424-4.345c.523-1.377.95-2.446 1.282-3.205.523-1.472.926-2.493 1.211-3.063.285-.617.285-1.02 0-1.21-.332-.238-.498-.832-.498-1.782.047-.997.498-1.851 1.353-2.564a4.045 4.045 0 0 1 1.994-1.282c.807-.285 1.733-.427 2.778-.427s2.137.047 3.276.142c.855.048 1.757.072 2.707.072h1.852c.427.19.95.403 1.567.64.617.238 1.163.475 1.638.713.523.19.784.356.784.498 0 .285.095.475.285.57l.712.143c.332 0 .878.308 1.638.926.76.57 1.52 1.282 2.28 2.136.807.808 1.376 1.615 1.709 2.422.38.807.688 1.567.926 2.28.285.712.308 1.733.071 3.062a11.156 11.156 0 0 1-.356 2.137c-.143.712-.309 1.187-.499 1.425-.285.19-.546.427-.783.712-.238.285-.356.546-.356.783 0 .19-.19.665-.57 1.425-.38.712-.855 1.543-1.425 2.493a45.832 45.832 0 0 1-1.852 2.706c-.664.903-1.282 1.615-1.852 2.137a13.522 13.522 0 0 1-2.208 2.137 23.718 23.718 0 0 1-2.208 1.638c-1.234.57-2.659 1.116-4.273 1.638-1.567.523-3.087.95-4.559 1.282-1.472.285-2.659.404-3.561.357-1.377.19-2.28.38-2.707.57-.427.142-.736.545-.926 1.21a84.473 84.473 0 0 0-.712 1.923c-.19.665-.285 1.14-.285 1.425-.095.19-.309.712-.64 1.567a87.164 87.164 0 0 1-1.07 2.991c-.38 1.14-.735 2.28-1.068 3.42a58.799 58.799 0 0 0-.783 2.92 2.382 2.382 0 0 1-1.211 1.495c-.57.333-1.068.499-1.496.499Zm10.113-23.79c.19.19.808.214 1.852.072 1.045-.143 2.303-.5 3.775-1.069.95-.332 1.9-.736 2.85-1.21a27.337 27.337 0 0 0 2.849-1.568c.474-.332.973-.736 1.495-1.21.523-.523 1.259-1.378 2.208-2.565.143-.237.38-.688.713-1.353.38-.712.712-1.377.997-1.995.427-.664.855-1.638 1.282-2.92.427-1.33.522-2.422.285-3.276-.238-1.235-.712-2.256-1.425-3.063-.712-.855-1.614-1.472-2.706-1.852-1.045-.19-1.924-.308-2.636-.356-.665-.048-1.4 0-2.208.142-.76.238-1.306.57-1.638.998-.285.427-.712 1.33-1.282 2.706-.333.665-.807 1.591-1.425 2.778a25.353 25.353 0 0 0-1.567 3.49c-.854 3.134-1.614 5.532-2.279 7.194a647.783 647.783 0 0 0-1.21 3.277c.047.522.023.902-.072 1.14-.095.19-.048.403.142.64Zm20.55 19.232c-.618 0-1.116-.12-1.496-.357-.333-.237-.76-.57-1.283-.997a13.526 13.526 0 0 1-2.208-3.063c-.522-1.092-.712-2.041-.57-2.849.143-.38.19-.736.143-1.068v-.57c-.237-.237-.309-.38-.214-.427a1.66 1.66 0 0 0 .285-.428c.285 0 .38-.26.285-.783-.095-.38.048-1.187.428-2.422a16.933 16.933 0 0 1 1.71-3.632c.284-.475.711-1.093 1.281-1.852a28.623 28.623 0 0 1 1.852-2.35c.712-.808 1.353-1.449 1.923-1.924 1.187-.997 2.28-1.804 3.277-2.422 1.044-.617 2.089-1.044 3.134-1.282a14.419 14.419 0 0 1 3.205-.356c1.14 0 2.065.38 2.778 1.14 1.092.475 1.852 1.116 2.279 1.923.475.807.783 1.852.926 3.134.142 1.425 0 3.181-.427 5.27-.428 2.043-1.591 4.417-3.49 7.123-1.188 1.71-2.351 3.04-3.49 3.99a27.994 27.994 0 0 1-3.776 2.635 7.36 7.36 0 0 1-3.205 1.21c-1.14.143-2.255.261-3.348.356Zm7.265-8.69c1.044-.902 1.78-1.9 2.208-2.992a60.424 60.424 0 0 0 1.495-3.846c.19-.285.309-.76.356-1.425a8.8 8.8 0 0 0 .072-1.923c-.048-.664-.214-1.044-.499-1.14-.427-.332-.855-.403-1.282-.213-.427.142-.973.451-1.638.926a27.508 27.508 0 0 0-3.989 4.131c-1.187 1.52-2.018 3.395-2.493 5.627-.142 1.187-.024 2.09.356 2.707.428.57 1.092.736 1.995.498.95-.285 2.089-1.068 3.419-2.35Zm18.042 9.473c-1.377.237-2.754.119-4.132-.356a7.817 7.817 0 0 1-3.347-2.28c-.855-1.091-1.282-2.397-1.282-3.917-.143-1.424-.024-3.11.356-5.057a36.1 36.1 0 0 1 1.852-5.983c.855-1.994 1.828-3.68 2.92-5.057.95-1.14 1.9-2.184 2.85-3.134.949-.95 1.803-1.59 2.563-1.923.665-.285 1.472-.499 2.422-.641.997-.19 1.686-.285 2.066-.285.76.19 1.59.498 2.492.926.95.427 1.425.926 1.425 1.495l.142.214.214.143c.285 0 .594.356.926 1.068.38.665.665 1.448.855 2.35.19.855.142 1.544-.143 2.066-.19.902-.57 1.78-1.14 2.636-.522.854-.973 1.282-1.353 1.282-.19 0-.38.023-.57.07-.142 0-.213.12-.213.357s-.261.356-.784.356c-.474 0-.973-.095-1.495-.285-.523-.19-.855-.475-.998-.855 0-.237.048-.546.143-.925.095-.38.237-1.021.427-1.924.285-1.33.309-2.208.072-2.635-.238-.475-.831-.522-1.781-.143-1.187.665-2.16 1.449-2.92 2.351-.76.855-1.449 2.066-2.066 3.633-.57 1.567-1.21 3.75-1.923 6.553-.285 1.092-.332 1.946-.143 2.564.238.617.428.95.57.997.665.19 1.377.237 2.137.142.807-.142 1.472-.356 1.994-.64.76-.38 1.425-.784 1.995-1.212.617-.474 1.282-.973 1.994-1.495.237-.143.451-.404.641-.784.19-.427.475-.736.855-.926.38-.57.855-.855 1.424-.855a23.49 23.49 0 0 1 1.781-.07c.38.094.784.332 1.21.712.428.38.737.76.927 1.14.237.331.214.569-.071.711-.19 0-.309.072-.356.214v.142c.094.19-.12.618-.642 1.283-.474.664-1.092 1.377-1.851 2.136-.76.76-1.496 1.425-2.208 1.995-.665.522-1.14.783-1.425.783-.475 0-.712.143-.712.428 0 .095-.356.332-1.069.712-.664.38-1.448.76-2.35 1.14-.855.38-1.615.64-2.28.783Zm14.904-.783a5.301 5.301 0 0 1-1.923-1.14c-.522-.523-.736-1.377-.64-2.564a19.72 19.72 0 0 1 .427-2.208c.19-.808.427-1.591.712-2.35.142-.855.308-1.71.498-2.565a8.063 8.063 0 0 1 1.14-2.422c.617-1.757 1.258-3.49 1.923-5.2a49.19 49.19 0 0 0 1.71-5.484c.712-1.71 1.353-3.229 1.923-4.558.617-1.33 1.353-3.04 2.208-5.129a23.264 23.264 0 0 0 1.21-3.632c.381-1.377.95-2.588 1.71-3.633.332-.427.57-.783.712-1.068.19-.332.38-.641.57-.926.333-.665.831-.974 1.496-.926.712.047 1.187.237 1.424.57.808.332 1.378.95 1.71 1.852.332.854.451 1.472.356 1.852 0 .522-.19 1.092-.57 1.709-.19.19-.38.475-.57.855-.19.332-.474.783-.854 1.353l-.57 1.852c-.19.617-.404 1.187-.641 1.71a24.327 24.327 0 0 1-.784 1.566c-.285.523-.475.95-.569 1.282a39.024 39.024 0 0 1-1.425 3.206 28.168 28.168 0 0 0-1.282 3.205 1343.8 1343.8 0 0 0-1.21 3.49 18.825 18.825 0 0 1-1.64 3.419c-.332.475-.522 1.116-.569 1.923a9.65 9.65 0 0 1-.285 2.35 265.54 265.54 0 0 1-.926 2.351c-.237.712-.356 1.163-.356 1.353a25.205 25.205 0 0 0-.784 3.134c-.19.998-.498 1.876-.925 2.636 0 1.14-.31 1.852-.926 2.136-.618.285-1.377.285-2.28 0Zm16.311.64c-.759-.094-1.329-.237-1.709-.427-.38-.237-1.092-.736-2.137-1.496-.57-.57-1.282-1.448-2.137-2.635a87.313 87.313 0 0 1-2.564-3.775 77.011 77.011 0 0 0-2.28-3.49l3.918-4.986a16.11 16.11 0 0 1 1.496 2.137c.38.665.689 1.116.926 1.353a121.144 121.144 0 0 1 2.564 3.918c.617.997 1.14 1.804 1.567 2.421.475.618.997 1.164 1.567 1.638.57.475 1.306.974 2.208 1.496.143.095.285.333.428.713.142.332.19.688.142 1.068-.095.57-.451 1.045-1.068 1.425-.57.332-1.544.546-2.921.64ZM96.637 56.504c-.284-.808-.356-1.71-.213-2.707.19-1.045.593-1.733 1.21-2.066.19-.332.38-.546.57-.64.238-.143.38-.31.428-.5.095-.19.332-.45.712-.783.427-.332.807-.64 1.14-.926a40.396 40.396 0 0 0 2.493-1.71 67.392 67.392 0 0 0 2.706-2.136 40.467 40.467 0 0 0 2.208-1.852c.618-.522.997-.855 1.14-.997.142-.19.427-.309.855-.356.474-.048.926.024 1.353.213.57.143 1.021.452 1.353.927.38.474.57 1.14.57 1.994.143.522-.166 1.163-.926 1.923-.712.712-1.614 1.425-2.707 2.137a33.42 33.42 0 0 0-1.567 1.068 27.86 27.86 0 0 0-1.638 1.353c-.332.19-.831.523-1.495.998-.618.427-1.164.854-1.639 1.282-.38.237-.831.665-1.353 1.282a4.68 4.68 0 0 1-1.638 1.282c-1.52 1.424-2.446 2.113-2.778 2.066-.285-.048-.546-.665-.784-1.852Zm21.726 14.316c-2.611 0-4.629-.76-6.054-2.28-1.377-1.519-2.066-3.845-2.066-6.98 0-1.709.309-3.584.926-5.626a36.6 36.6 0 0 1 2.565-5.983c1.092-1.947 2.279-3.633 3.561-5.057 1.282-1.472 2.564-2.493 3.846-3.063a5.552 5.552 0 0 1 1.496-.499 6.752 6.752 0 0 1 1.638-.213c.57 0 1.187.047 1.852.142.712.047 1.377.19 1.994.427 1.093.333 2.042.974 2.849 1.923.855.95 1.283 2.327 1.283 4.132 0 .474-.048.997-.143 1.567a6.64 6.64 0 0 1-.499 1.567c-.617 1.567-1.567 3.062-2.849 4.487-1.234 1.425-2.54 2.422-3.917 2.992-.38.19-.76.332-1.14.427a7.55 7.55 0 0 1-1.068.071c-.997 0-1.899-.142-2.707-.427a9.271 9.271 0 0 1-2.137-1.14l-.569-.498-.356.712c-.333.902-.57 1.662-.713 2.279-.095.617-.142 1.068-.142 1.353 0 .57.024 1.164.071 1.781.048.57.19 1.045.427 1.424.19.238.428.428.713.57.332.143.736.214 1.211.214h.783c.285-.047.522-.095.712-.142.855-.19 1.544-.499 2.066-.926a10.67 10.67 0 0 1 1.781-1.211l.284-.143-.071-.213c.807-.428 1.354-.689 1.638-.784.285-.142.499-.261.641-.356a.887.887 0 0 1 .642-.285c.664-.095 1.305.095 1.923.57.664.427.997.973.997 1.638 0 .285-.214.736-.641 1.353-.38.618-.879 1.235-1.496 1.852a7.68 7.68 0 0 1-1.781 1.354 1.799 1.799 0 0 0-.427.213 1.795 1.795 0 0 0-.427.214h.071c-.428.57-.855.855-1.282.855h-.57c-.19.332-.807.688-1.852 1.068-1.045.427-2.066.641-3.063.641Zm3.704-17.165c.427 0 .807-.072 1.14-.214a7.31 7.31 0 0 0 1.068-.499c1.14-.807 1.876-1.852 2.208-3.134.333-1.282.214-2.255-.356-2.92a.688.688 0 0 0-.356-.285.88.88 0 0 0-.499-.142c-.522 0-1.116.166-1.78.498-.618.333-1.235.807-1.852 1.425a11.82 11.82 0 0 0-1.71 2.208l-.926 1.495a.55.55 0 0 1 .214-.07.545.545 0 0 1 .214-.072c.427 0 .712.142.854.427.143.285.309.57.499.855.237.285.665.428 1.282.428Zm15.242 20.157c-2.327-.048-3.823-.713-4.488-1.995-.617-1.234-.783-2.801-.498-4.7.285-.903.451-1.71.498-2.422.095-.76.309-1.235.641-1.425l.071-.214c.095-.142.072-.284-.071-.427 0-.617.214-1.472.641-2.564.095-.285.214-.617.356-.997l.285-.641c-.237-.38-.237-.689 0-.926.238-.238.475-.451.713-.641.285-.238.308-.499.071-.784-.095-.19.024-.617.356-1.282.332-.712.712-1.448 1.14-2.208.427-.76.712-1.353.854-1.78 0-.095.119-.428.356-.998a134.919 134.919 0 0 1 1.781-4.06c.333-.617.546-1.02.641-1.21.475-.238.285-.404-.57-.5a16.878 16.878 0 0 0-2.706-.07c-1.472-.048-2.659-.12-3.562-.214-.854-.095-1.567-.309-2.136-.641-.57-.665-.641-1.448-.214-2.35.427-.95 1.116-1.449 2.065-1.496a19.996 19.996 0 0 1 1.425-.072c.38 0 .855-.023 1.425-.07a75.402 75.402 0 0 1 2.849-.357l3.632-.285.214-1.21c.38-.618.641-1.022.783-1.212.143-.19.238-.38.285-.57.048-.237.119-.64.214-1.21l.641-1.14a6.94 6.94 0 0 0 .784-2.493c.569-.95 1.068-1.804 1.495-2.564.428-.807.689-1.306.784-1.496.807-1.187 1.59-1.828 2.35-1.923.807-.095 1.567.095 2.28.57.427.237.83.546 1.21.926.38.332.618.783.713 1.353.095.523-.119 1.211-.641 2.066-.095.19-.238.546-.428 1.068-.19.475-.332.879-.427 1.211-.285.332-.641.879-1.069 1.638a7.692 7.692 0 0 0-.783 2.208c-.38.808-.617 1.306-.712 1.496-.095.19-.238.285-.428.285.095.475.38.712.855.712a47.556 47.556 0 0 1 2.351-.142c.902-.095 1.519-.19 1.851-.285.38-.142.808-.095 1.283.142.237.333.356.831.356 1.496a4.964 4.964 0 0 1-.214 1.852c-.19.57-.451.926-.784 1.068-.237 0-.736.143-1.495.428-.713.237-1.615.38-2.707.427l-3.775.356-1.211 2.422a28.556 28.556 0 0 0-.854 1.71c-.238.474-.404.76-.499.854 0 .285-.166.712-.499 1.282l-.926 1.852a13.49 13.49 0 0 1-.997 2.208l-.498.997c-.19 0-.285.143-.285.428.237.57.166.997-.214 1.282a2.064 2.064 0 0 0-.641.64l-.214.357c.19.19.214.427.072.712a5.221 5.221 0 0 1-.428.926c0 .38-.119.926-.356 1.638a19.83 19.83 0 0 1-.641 1.995c.047.854.095 1.4.142 1.638.048.237.167.332.357.285.237.047.569.047.997 0a9.31 9.31 0 0 1 .926-.071c.712-.333.38 1.33-.997 4.986-.76 1.187-1.52 2.16-2.28 2.92-.759.807-1.258 1.21-1.495 1.21Zm37.482.356a28.83 28.83 0 0 1-2.065-.641l-.784-.214c.095-.237.047-.451-.142-.64-.143-.19-.475-.31-.998-.357-.712-.475-1.448-1.14-2.208-1.994a20.322 20.322 0 0 1-1.994-2.636c-.57-.902-.95-1.567-1.14-1.994-.332-.712-.308-1.14.072-1.282.379-.19.831-.404 1.353-.641a6.002 6.002 0 0 1 1.638-.855c.617-.19 1.116.119 1.496.926.617 1.092 1.567 2.018 2.849 2.778 1.33.76 2.825 1.21 4.487 1.353 1.71.142 3.419-.142 5.129-.855 1.139-.522 1.757-1.234 1.851-2.136.095-.95-.261-2.042-1.068-3.277a2.164 2.164 0 0 0-.641-.926c-.237-.237-.617-.546-1.14-.926-.474-.38-1.163-.997-2.065-1.852-.712-.332-1.377-.64-1.995-.926l-1.851-.926c-.76-.38-1.615-.902-2.565-1.567a24.587 24.587 0 0 1-2.635-2.279c-.807-.855-1.425-1.662-1.852-2.422-.76-.712-1.234-1.685-1.424-2.92-.19-1.282-.167-2.635.071-4.06.285-1.424.736-2.706 1.353-3.846.285-.665.807-1.52 1.567-2.564a48.903 48.903 0 0 1 2.564-3.348c.95-1.14 1.852-2.16 2.707-3.063.902-.95 1.614-1.59 2.137-1.923.38-.38.783-.76 1.211-1.14l.641-.64c.047-.238.118-.357.213-.357h.214c.237-.142.76-.38 1.567-.712.807-.332 1.686-.95 2.635-1.852 3.182-1.52 5.888-2.54 8.12-3.062 2.232-.57 3.989-.855 5.271-.855 1.187.047 2.35.38 3.49.997a9.671 9.671 0 0 1 2.92 2.208c.855.902 1.354 1.923 1.496 3.063.333 1.14.166 2.517-.498 4.131-.618 1.567-1.496 3.063-2.636 4.487-1.092 1.377-2.232 2.398-3.419 3.063-1.329.57-2.469.641-3.419.214-.902-.428-1.329-1.093-1.282-1.995 0-.38.119-.83.356-1.353.285-.522 1.021-1.448 2.208-2.778 1.52-2.232 2.327-3.822 2.422-4.772.095-.95-.332-1.496-1.282-1.638-.285-.095-.831-.072-1.638.071-.807.142-1.686.332-2.635.57-.903.19-1.71.403-2.422.64-.665.238-.997.404-.997.5v.213c0 .143-.095.19-.285.143-.095 0-.428.166-.997.498a38.65 38.65 0 0 0-1.924 1.14c-.759.475-1.519.973-2.279 1.496a57.13 57.13 0 0 0-1.852 1.282c-.522.38-.807.617-.854.712-.095.522-.642.997-1.639 1.424-.949.57-1.78 1.377-2.493 2.422-.712 1.045-1.543 2.374-2.493 3.989a10.285 10.285 0 0 0-1.709 3.561c-.332 1.235-.332 2.232 0 2.992.237.76.878 1.52 1.923 2.279 1.092.712 2.564 1.615 4.416 2.707a53.173 53.173 0 0 1 4.559 2.849c1.424.997 2.635 1.97 3.632 2.92.997.902 1.638 1.662 1.923 2.28.57.806.903 1.732.998 2.777a11.061 11.061 0 0 1 0 3.063c-.095.95-.238 1.733-.428 2.35-.332.76-.855 1.567-1.567 2.422-.665.855-1.282 1.258-1.852 1.21-.522.143-.926.31-1.211.5a3.68 3.68 0 0 1-.854.498c-.333.19-1.116.404-2.351.641a31.663 31.663 0 0 1-4.06.641c-1.472.19-2.754.261-3.846.214Zm23.337-7.337c-.332.048-.712-.07-1.139-.356-.38-.332-.736-.617-1.069-.854-.474-.57-.807-1.069-.997-1.496a3.468 3.468 0 0 1-.285-1.425c0-.522.048-1.14.143-1.852.237-.76.522-1.78.854-3.062.333-1.282.737-2.66 1.211-4.132.095-.57.262-1.234.499-1.994.285-.807.57-1.567.855-2.28l.641-1.709c.332-1.187.664-2.326.997-3.418.38-1.093.831-2.35 1.353-3.776a340.519 340.519 0 0 0 1.923-5.413l2.351-6.41c.522-1.425.902-2.446 1.139-3.063.238-.617.404-1.116.499-1.496 0-.38.261-.736.784-1.068.569-.38 1.068-.57 1.495-.57.665.048 1.306.451 1.923 1.211.618.712 1.045 1.59 1.282 2.635.238.998.072 1.971-.498 2.92a81.048 81.048 0 0 0-2.279 5.77l-2.137 6.268a109.116 109.116 0 0 1-2.137 5.77c-.047.237-.214.64-.499 1.21-.237.57-.451 1.045-.641 1.425-.19.38-.379.736-.569 1.068l-.214.499c-.048.285-.143.688-.285 1.21-.142.523-.285.974-.427 1.354-.048.237-.119.546-.214.926s-.166.76-.214 1.14c.238-.285.57-.618.997-.998.428-.427.974-.95 1.639-1.567.759-.664 1.424-1.234 1.994-1.71.57-.474 1.14-.901 1.709-1.281.523-.38.998-.736 1.425-1.069l.712-.498c.095-.143.19-.309.285-.499.143-.19.285-.308.428-.356a2.74 2.74 0 0 1 .498-.356l.712-.57a7.383 7.383 0 0 1 1.354-.712 8.381 8.381 0 0 1 2.991-.57c.57 0 1.164.237 1.781.712.617.428 1.187 1.045 1.709 1.852.475.618.76 1.354.855 2.208.143.808.166 1.9.071 3.277 0 .38-.118 1.092-.356 2.136l-.427 2.351-.641 2.422h.57c.522-.19 1.02-.214 1.495-.072l.784.214c.237.143.451.309.641.499.237.19.451.332.641.427.285.38.237.926-.143 1.638-.379.713-.807 1.211-1.282 1.496-1.139.76-2.16 1.235-3.062 1.425-.855.19-1.757.023-2.707-.499-.902-.617-1.52-1.353-1.852-2.208-.285-.855-.404-2.018-.356-3.49.19-2.09.309-3.585.356-4.487.048-.95-.19-1.425-.712-1.425-.57 0-1.353.285-2.351.855-.949.522-2.018 1.258-3.205 2.208a40.867 40.867 0 0 0-3.561 3.063 33.064 33.064 0 0 0-3.063 3.347 37.164 37.164 0 0 1-1.852 2.137 3.564 3.564 0 0 1-2.422 1.069Zm30.817 1.425c-.57.142-1.211-.024-1.923-.499a8.505 8.505 0 0 1-1.923-1.78c-.57-.713-.926-1.354-1.068-1.923-.19-.998-.143-2.208.142-3.633.332-1.472.878-3.015 1.638-4.63a28.143 28.143 0 0 1 2.849-4.843 25.962 25.962 0 0 1 3.847-4.345c1.424-1.282 2.967-2.28 4.629-2.992.713-.38 1.211-.617 1.496-.712a.909.909 0 0 1 .855 0c.285.095.783.333 1.496.712a16.8 16.8 0 0 1 1.994.713c.712.237 1.329.712 1.852 1.424.38.713.665 1.425.854 2.137.19.712.357 1.52.499 2.422.38 1.187.522 1.97.427 2.35-.095.333-.237.594-.427.784-.38.475-.475.712-.285.712l-.071.285c0 .142-.095.38-.285.712a27.878 27.878 0 0 0-.783 2.992c-.143.902-.119 1.71.071 2.421.38 1.045.878 1.662 1.496 1.852.664.19 1.519-.237 2.564-1.282a3.92 3.92 0 0 1 1.78-.712c.665-.142.998-.024.998.356l.213.214a.88.88 0 0 0 .499.142c.237 0 .332.238.285.713-.048.427-.143.926-.285 1.495-.143.57-.333 1.045-.57 1.425-.712.712-1.068 1.187-1.068 1.424l-.285.285c-.143.143-.404.38-.784.713-.855.522-1.947.783-3.276.783-1.282 0-2.28-.261-2.992-.783a15.678 15.678 0 0 1-2.137-1.924c-.664-.76-1.092-1.471-1.282-2.136l-.356-.713-2.065 1.354a19.93 19.93 0 0 0-1.14 1.21l-.641.642c-.143.19-.309.356-.499.498a.681.681 0 0 1-.498.214h-.712c0 .19-.333.451-.998.783a19.7 19.7 0 0 1-2.208.784c-.807.237-1.448.356-1.923.356Zm1.496-5.983c.285 0 .712-.166 1.282-.499.617-.38 1.282-.83 1.994-1.353a22.56 22.56 0 0 0 1.923-1.567c.618-.522 1.069-.95 1.354-1.282.19-.19.403-.499.641-.926.285-.427.593-.807.926-1.14 1.092-1.234 1.78-2.208 2.065-2.92.285-.76.167-1.567-.356-2.422-.19-.522-.427-.807-.712-.854-.285-.048-.878.118-1.781.498-.57.333-1.187.879-1.852 1.639a44.116 44.116 0 0 0-2.065 2.564 37.761 37.761 0 0 0-1.852 2.92c-.57.997-1.045 1.9-1.425 2.707-.332.807-.498 1.448-.498 1.923 0 .19.047.356.142.498l.214.214Zm40.31 7.194c-.712.047-1.377.071-1.994.071-.57 0-1.021-.095-1.353-.285-.855-.712-1.425-1.282-1.71-1.71a2.887 2.887 0 0 1-.356-1.424c.048-.665.071-1.33.071-1.994v-1.638c-.19-.19-.569.023-1.139.64a14.702 14.702 0 0 1-1.995 1.781c-1.472 1.662-2.777 2.873-3.917 3.633-1.14.712-2.184 1.116-3.134 1.21-.95.143-1.899.167-2.849.072-.855-.095-1.615-.522-2.279-1.282-.618-.76-1.092-1.686-1.425-2.778a9.286 9.286 0 0 1-.285-3.205c.238-1.947.665-3.704 1.282-5.27.618-1.615 1.544-3.301 2.778-5.058.57-.76 1.33-1.59 2.279-2.493a27.572 27.572 0 0 1 3.206-2.493c1.139-.807 2.16-1.377 3.062-1.71 1.377-.617 2.517-.902 3.419-.854.95.047 1.876.19 2.778.427.665.333 1.187.499 1.567.499.427 0 .736-.238.926-.712.285-.38.499-.855.641-1.425a5.56 5.56 0 0 1 .712-1.638l1.567-4.63c.523-1.282 1.14-2.754 1.852-4.416.712-1.662 1.52-3.514 2.422-5.556 1.092-1.852 2.018-2.825 2.778-2.92.807-.095 1.638.332 2.493 1.282.57.57.878 1.282.926 2.137.095.807-.119 1.757-.641 2.849a18.178 18.178 0 0 0-1.069 1.994l-1.353 2.707a124.545 124.545 0 0 1-1.638 3.704 140.864 140.864 0 0 0-1.639 4.06c-.189.76-.451 1.638-.783 2.635a59.79 59.79 0 0 0-.712 2.707c-.143.76-.309 1.472-.499 2.136-.142.618-.309.926-.498.926-.38.333-.736 1.045-1.069 2.137a31.5 31.5 0 0 0-.855 3.348 117.85 117.85 0 0 1-.498 2.92c-.095.57-.166 1.377-.214 2.422-.047.997-.071 1.97-.071 2.92v1.852c0 .902-.071 1.543-.214 1.923-.095.333-.285.499-.57.499Zm-16.097-5.627c1.092 0 2.113-.451 3.063-1.353a113.05 113.05 0 0 1 3.276-2.992 54.152 54.152 0 0 0 2.208-2.35 45.06 45.06 0 0 0 2.066-2.636c.665-.855 1.187-1.59 1.567-2.208.38-.617.57-1.02.57-1.21 0-.238-.19-.452-.57-.642a4.022 4.022 0 0 0-1.211-.427c-.475-.142-.902-.166-1.282-.071-1.14.332-2.066.83-2.778 1.495-.665.665-1.638 1.71-2.92 3.134-1.282 1.567-2.303 3.063-3.063 4.488-.76 1.424-1.234 2.588-1.424 3.49-.143.855.023 1.282.498 1.282Zm33.786 4.273a11.127 11.127 0 0 1-4.558 1.425c-1.567.095-3.039-.119-4.416-.641-1.377-.57-2.493-1.4-3.348-2.493-.475-.617-.926-1.59-1.353-2.92-.428-1.377-.499-3.23-.214-5.556.285-2.184.95-4.392 1.994-6.624 1.092-2.232 2.422-4.202 3.989-5.912 1.567-1.71 3.276-2.873 5.128-3.49a10.22 10.22 0 0 1 1.995-.498c.712-.143 1.638-.167 2.778-.072 1.092.143 2.065.428 2.92.855.855.38 1.472.807 1.852 1.282.759.76 1.258 1.496 1.495 2.208.238.712.333 1.4.285 2.066-.237 1.52-.926 3.157-2.065 4.914-1.092 1.757-2.636 3.063-4.63 3.918-.807.332-1.757.546-2.849.64-1.092.096-2.588-.047-4.487-.427-1.14-.237-1.9-.118-2.28.357-.332.474-.474 1.4-.427 2.777.095.855.285 1.615.57 2.28.332.617.926 1.044 1.781 1.282 1.092.19 1.875.213 2.35.071a36.07 36.07 0 0 0 1.781-.783c.38-.238.736-.5 1.068-.784.38-.285.736-.57 1.069-.855.379-.285.688-.498.925-.64a1.68 1.68 0 0 1 .713-.357c.237-.047.475-.071.712-.071.522.047 1.021.332 1.496.855.475.522.783 1.02.926 1.495 0 .38-.238.926-.713 1.639-.474.664-1.115 1.377-1.923 2.136a15.018 15.018 0 0 1-2.564 1.924Zm-.926-15.883c.333-.142.807-.475 1.425-.997a14.819 14.819 0 0 0 1.78-1.638c.523-.618.784-1.093.784-1.425 0-.522-.356-.973-1.068-1.353-.665-.38-1.544-.451-2.636-.214-.38.095-.831.356-1.353.783-.523.428-1.045.926-1.567 1.496a13.205 13.205 0 0 0-1.353 1.567c-.38.475-.642.855-.784 1.14.19.237.57.427 1.14.57a7.615 7.615 0 0 0 1.852.213c.712 0 1.305-.047 1.78-.142Zm8.831 16.24c-.332 0-.783-.238-1.353-.713-.522-.474-.831-.902-.926-1.282-.142-.38-.142-.926 0-1.638.19-.76.451-1.638.783-2.635.38-1.567.642-2.707.784-3.42.142-.711.285-1.329.427-1.851a74.1 74.1 0 0 0 .57-2.28c.285-.617.499-1.21.641-1.78l.57-1.852c.237-.617.499-1.234.784-1.852a25.176 25.176 0 0 1 1.21-3.49c.523-1.14 1.021-2.09 1.496-2.849.095-.142.309-.404.641-.784.333-.38.594-.57.784-.57.38-.38.902-.498 1.567-.355.664.095 1.234.332 1.709.712.57.617.879 1.353.926 2.208.095.807-.237 1.947-.997 3.419-.57 1.472-1.116 2.635-1.638 3.49a26.46 26.46 0 0 0-1.425 2.849 19.924 19.924 0 0 1 1.923-2.35c.76-.808 1.354-1.449 1.781-1.924.617-.664 1.187-1.187 1.709-1.567.57-.427 1.33-.95 2.28-1.567a34.733 34.733 0 0 1 2.421-1.567c.855-.475 1.876-.617 3.063-.427.475-.048.974.19 1.496.712.57.523.997 1.211 1.282 2.066.332.807.332 1.686 0 2.635-1.092-.237-2.066-.19-2.92.143-.855.285-1.591.64-2.208 1.068-.57.428-1.021.76-1.354.997-.475.285-1.021.665-1.638 1.14-.617.427-1.282.926-1.994 1.496a51.811 51.811 0 0 0-2.28 1.78c-1.139.95-1.994 1.781-2.564 2.493a9.299 9.299 0 0 0-1.353 2.28 118.75 118.75 0 0 1-1.068 2.564 86.55 86.55 0 0 1-1.211 2.706c-.38.76-.689 1.235-.926 1.425-.238.475-.736.736-1.496.783-.712.048-1.211-.023-1.496-.213Z"
	/>
	<path
		stroke="url(#b)"
		d="M31.42 174.993H10.17a9 9 0 0 1-9-9v-60.329a9 9 0 0 1 9-9h304.66a9 9 0 0 1 9 9v60.329a9 9 0 0 1-9 9h-21.25"
	/>
	<path
		fill="#7E8694"
		d="M56.6 126.446c.085.16.128.298.128.416a.417.417 0 0 1-.096.304 1.071 1.071 0 0 1-.352.24c-.256.117-.459.144-.608.08-.139-.064-.267-.219-.384-.464l-4-8.512-3.968 8.496c-.118.245-.25.4-.4.464-.139.064-.342.037-.608-.08a.819.819 0 0 1-.352-.24.543.543 0 0 1-.08-.352 1.79 1.79 0 0 1 .16-.48l4.592-9.584a.746.746 0 0 1 .272-.304.706.706 0 0 1 .4-.128.77.77 0 0 1 .272.048c.085.032.16.08.224.144a.748.748 0 0 1 .16.256l4.64 9.696Zm-8.32-2.16.544-1.232h4.96l.528 1.232H48.28Zm12.064 6.304a.999.999 0 0 1-.368-.064.393.393 0 0 1-.24-.192c-.064-.096-.096-.246-.096-.448 0-.192.032-.336.096-.432a.455.455 0 0 1 .256-.208c.107-.032.23-.048.368-.048.245 0 .48-.022.704-.064a1.43 1.43 0 0 0 .608-.256c.181-.128.32-.32.416-.576.106-.246.16-.566.16-.96v-6.96c0-.139.016-.256.048-.352a.393.393 0 0 1 .192-.224c.106-.064.261-.096.464-.096.192 0 .336.032.432.096a.385.385 0 0 1 .208.256c.032.106.048.234.048.384v6.896c0 .554-.086 1.034-.256 1.44-.17.416-.406.757-.704 1.024a2.883 2.883 0 0 1-1.04.592 4.181 4.181 0 0 1-1.296.192Zm2.576-12.8c-.31 0-.523-.059-.64-.176-.107-.128-.16-.347-.16-.656 0-.31.059-.518.176-.624.117-.118.33-.176.64-.176s.517.064.624.192c.117.117.176.33.176.64 0 .298-.059.506-.176.624-.117.117-.33.176-.64.176Zm9.524 9.664c-.235 0-.406-.048-.512-.144-.096-.096-.155-.246-.176-.448l.064-.8a3.56 3.56 0 0 1-.496.592 3.325 3.325 0 0 1-.88.576c-.363.16-.806.24-1.328.24-.512 0-.992-.102-1.44-.304a3.788 3.788 0 0 1-1.168-.848 4.2 4.2 0 0 1-.784-1.248 4.141 4.141 0 0 1-.272-1.504c0-.523.09-1.014.272-1.472a3.888 3.888 0 0 1 1.968-2.064 3.41 3.41 0 0 1 1.424-.304c.469 0 .869.064 1.2.192.33.117.613.277.848.48.245.192.458.41.64.656l-.032-.672c-.011-.235.037-.4.144-.496.117-.107.298-.16.544-.16.202 0 .346.032.432.096.096.064.16.154.192.272.032.117.048.261.048.432v6.176c0 .149-.016.282-.048.4a.4.4 0 0 1-.192.256c-.096.064-.246.096-.448.096Zm-3.088-1.328c.426 0 .816-.112 1.168-.336a2.36 2.36 0 0 0 .848-.896c.213-.384.32-.822.32-1.312 0-.502-.112-.939-.336-1.312a2.325 2.325 0 0 0-.864-.896 2.131 2.131 0 0 0-1.168-.336c-.502 0-.939.117-1.312.352a2.45 2.45 0 0 0-.864.912c-.214.384-.32.821-.32 1.312 0 .48.106.912.32 1.296.213.373.506.672.88.896.384.213.826.32 1.328.32Zm8.729 1.376c-.182 0-.33-.027-.448-.08a.658.658 0 0 1-.272-.288l-2.96-6.448c-.118-.256-.144-.448-.08-.576.064-.139.213-.267.448-.384.213-.107.394-.139.544-.096.15.032.277.17.384.416l2.384 5.68 2.336-5.52c.117-.246.245-.422.384-.528.138-.107.357-.086.656.064.288.138.432.298.432.48 0 .17-.048.357-.144.56l-2.944 6.336a.565.565 0 0 1-.256.288.968.968 0 0 1-.464.096Zm11.187-.048c-.235 0-.406-.048-.512-.144-.096-.096-.155-.246-.176-.448l.064-.8a3.58 3.58 0 0 1-.496.592 3.327 3.327 0 0 1-.88.576c-.363.16-.806.24-1.328.24-.512 0-.992-.102-1.44-.304a3.786 3.786 0 0 1-1.168-.848 4.198 4.198 0 0 1-.784-1.248 4.14 4.14 0 0 1-.272-1.504c0-.523.09-1.014.272-1.472a3.886 3.886 0 0 1 1.968-2.064 3.41 3.41 0 0 1 1.424-.304c.47 0 .87.064 1.2.192.33.117.613.277.848.48.245.192.458.41.64.656l-.032-.672c-.01-.235.037-.4.144-.496.117-.107.298-.16.544-.16.202 0 .346.032.432.096.096.064.16.154.192.272.032.117.048.261.048.432v6.176c0 .149-.016.282-.048.4a.4.4 0 0 1-.192.256c-.096.064-.246.096-.448.096Zm-3.088-1.328c.426 0 .816-.112 1.168-.336.362-.224.645-.523.848-.896.213-.384.32-.822.32-1.312 0-.502-.112-.939-.336-1.312a2.326 2.326 0 0 0-.864-.896 2.131 2.131 0 0 0-1.168-.336c-.502 0-.939.117-1.312.352-.363.224-.65.528-.864.912-.214.384-.32.821-.32 1.312 0 .48.106.912.32 1.296.213.373.506.672.88.896.384.213.826.32 1.328.32Zm8.26 1.424c-.257 0-.523-.027-.8-.08a5.513 5.513 0 0 1-.817-.224 3.87 3.87 0 0 1-.688-.368 1.48 1.48 0 0 1-.432-.464.913.913 0 0 1-.096-.288.477.477 0 0 1 .048-.272.983.983 0 0 1 .192-.256c.107-.128.214-.187.32-.176.107 0 .24.069.4.208.118.074.256.16.416.256.16.085.326.165.496.24.17.064.342.122.512.176.182.042.358.064.528.064.49 0 .886-.091 1.184-.272.299-.192.448-.443.448-.752a.905.905 0 0 0-.112-.464.964.964 0 0 0-.304-.32 1.878 1.878 0 0 0-.432-.24 4.615 4.615 0 0 0-.544-.176 11.496 11.496 0 0 0-.576-.176 11.28 11.28 0 0 1-.848-.256 3.299 3.299 0 0 1-.752-.368 1.929 1.929 0 0 1-.544-.592c-.138-.246-.208-.555-.208-.928 0-.438.112-.816.336-1.136a2.12 2.12 0 0 1 .944-.736c.406-.182.88-.272 1.424-.272.235 0 .454.016.656.048.203.032.395.085.576.16.192.064.374.144.544.24.17.085.336.192.496.32.192.128.294.266.304.416.01.149-.048.304-.176.464a.694.694 0 0 1-.32.272c-.117.032-.234 0-.352-.096a3.554 3.554 0 0 0-.544-.336 4.05 4.05 0 0 0-.592-.24 2.06 2.06 0 0 0-.624-.096 1.91 1.91 0 0 0-.72.128 1.007 1.007 0 0 0-.48.352.858.858 0 0 0-.16.512c0 .17.043.309.128.416.096.106.214.197.352.272.15.074.32.144.512.208l.624.16c.31.074.624.165.944.272.33.096.624.229.88.4.267.16.48.378.64.656.17.266.256.624.256 1.072 0 .704-.277 1.258-.832 1.664-.554.405-1.29.608-2.208.608Zm8.415-.048a4.495 4.495 0 0 1-1.568-.272 3.958 3.958 0 0 1-1.28-.784 3.833 3.833 0 0 1-.864-1.216c-.203-.48-.304-1.024-.304-1.632 0-.608.101-1.147.304-1.616.213-.48.501-.891.864-1.232a3.752 3.752 0 0 1 1.264-.784 4.427 4.427 0 0 1 1.552-.272c.363 0 .72.058 1.072.176.352.106.661.25.928.432.277.17.475.352.592.544.107.138.181.256.224.352.053.085.059.186.016.304a.936.936 0 0 1-.176.24 1.48 1.48 0 0 1-.224.16c-.192.149-.384.17-.576.064a2.36 2.36 0 0 0-.4-.32 3.172 3.172 0 0 0-.448-.288 2.104 2.104 0 0 0-.496-.192 1.592 1.592 0 0 0-.512-.08c-.501 0-.944.106-1.328.32a2.153 2.153 0 0 0-.896.88c-.203.373-.304.81-.304 1.312 0 .501.101.938.304 1.312.213.373.507.666.88.88.384.213.821.32 1.312.32.224 0 .437-.027.64-.08a3.27 3.27 0 0 0 .592-.24c.181-.107.331-.219.448-.336l.272-.192a.451.451 0 0 1 .272-.08.45.45 0 0 1 .272.112c.096.064.197.165.304.304a.54.54 0 0 1 .144.304.437.437 0 0 1-.048.304 1.037 1.037 0 0 1-.256.288c-.171.17-.4.336-.688.496a4.659 4.659 0 0 1-.912.368 3.491 3.491 0 0 1-.976.144Zm5.181-.032c-.203 0-.357-.032-.464-.096a.397.397 0 0 1-.192-.24 2.29 2.29 0 0 1-.032-.4v-6.304c0-.16.016-.294.048-.4a.336.336 0 0 1 .192-.224c.096-.054.251-.08.464-.08.192 0 .336.026.432.08a.333.333 0 0 1 .208.208.665.665 0 0 1 .064.304l-.064.48c.075-.139.16-.278.256-.416.107-.139.235-.262.384-.368.16-.118.347-.214.56-.288a2.59 2.59 0 0 1 .816-.112c.16 0 .309.016.448.048.149.021.288.058.416.112.139.053.256.117.352.192a.736.736 0 0 1 .224.224.402.402 0 0 1 .096.272.896.896 0 0 1-.224.608c-.149.16-.304.24-.464.24a.717.717 0 0 1-.304-.048 21.332 21.332 0 0 0-.192-.128.708.708 0 0 0-.24-.112c-.107-.043-.277-.064-.512-.064-.16 0-.331.032-.512.096-.171.064-.336.16-.496.288a1.42 1.42 0 0 0-.4.464 1.485 1.485 0 0 0-.144.672v4.288c0 .149-.016.277-.048.384a.387.387 0 0 1-.208.24c-.096.053-.251.08-.464.08Zm6.58 0c-.203 0-.357-.032-.464-.096a.397.397 0 0 1-.192-.24 1.35 1.35 0 0 1-.048-.384v-6.32c0-.15.016-.278.048-.384a.392.392 0 0 1 .192-.24c.107-.054.267-.08.48-.08.203 0 .352.032.448.096.096.053.16.133.192.24.032.106.048.24.048.4v6.304c0 .149-.016.277-.048.384a.387.387 0 0 1-.208.24c-.096.053-.245.08-.448.08Zm0-9.664c-.235 0-.411-.032-.528-.096a.567.567 0 0 1-.24-.304 1.864 1.864 0 0 1-.048-.448c0-.171.021-.315.064-.432a.437.437 0 0 1 .24-.272c.117-.064.293-.096.528-.096.224 0 .395.032.512.096.117.064.192.16.224.288.043.128.064.277.064.448 0 .17-.021.32-.064.448a.435.435 0 0 1-.224.272c-.117.064-.293.096-.528.096Zm6.714 9.6c-.523 0-.997-.096-1.424-.288a3.14 3.14 0 0 1-1.088-.8 3.997 3.997 0 0 1-.704-1.232 4.513 4.513 0 0 1-.224-1.552c0-.555.08-1.067.24-1.536.16-.47.389-.875.688-1.216a3.06 3.06 0 0 1 1.088-.8 3.431 3.431 0 0 1 1.424-.288c.491 0 .949.096 1.376.288.437.192.816.464 1.136.816.331.341.587.752.768 1.232.192.48.288.997.288 1.552 0 .554-.096 1.066-.288 1.536a3.578 3.578 0 0 1-.768 1.216c-.32.341-.699.608-1.136.8a3.487 3.487 0 0 1-1.376.272Zm-3.328 3.216c-.203 0-.357-.032-.464-.096a.468.468 0 0 1-.208-.24 1.35 1.35 0 0 1-.048-.384v-9.456c0-.15.016-.278.048-.384a.392.392 0 0 1 .192-.24c.107-.064.261-.096.464-.096.235 0 .405.037.512.112.117.074.187.208.208.4v9.648c.011.149 0 .277-.032.384a.389.389 0 0 1-.208.256c-.096.064-.251.096-.464.096Zm3.12-4.528c.448 0 .853-.107 1.216-.32.363-.224.645-.528.848-.912.213-.384.32-.822.32-1.312 0-.502-.107-.939-.32-1.312a2.126 2.126 0 0 0-.848-.864 2.292 2.292 0 0 0-1.216-.32c-.448 0-.853.106-1.216.32a2.39 2.39 0 0 0-.848.88c-.203.373-.304.805-.304 1.296 0 .49.101.928.304 1.312.213.384.496.688.848.912.363.213.768.32 1.216.32Zm8.967 1.376c-.501 0-.928-.048-1.28-.144a2.09 2.09 0 0 1-.848-.448 1.685 1.685 0 0 1-.48-.784c-.096-.331-.144-.736-.144-1.216v-7.072c0-.15.016-.278.048-.384a.392.392 0 0 1 .192-.24c.096-.064.246-.096.448-.096.203 0 .358.032.464.096a.382.382 0 0 1 .208.24c.032.096.048.218.048.368v7.088c0 .277.022.501.064.672.054.16.128.282.224.368a.826.826 0 0 0 .416.16c.171.021.379.032.624.032.171 0 .31.016.416.048a.392.392 0 0 1 .24.192c.054.096.08.24.08.432 0 .202-.032.357-.096.464a.347.347 0 0 1-.256.176 1.278 1.278 0 0 1-.368.048Zm-3.584-7.568 1.536.016 2.224-.032c.15 0 .278.016.384.048a.33.33 0 0 1 .24.192c.064.096.096.245.096.448 0 .202-.026.357-.08.464a.392.392 0 0 1-.24.192 1.34 1.34 0 0 1-.384.048l-2.192-.032-1.616.016c-.224 0-.378-.054-.464-.16-.074-.107-.112-.283-.112-.528 0-.235.048-.406.144-.512.096-.107.251-.16.464-.16Zm13.935 7.504c-.523 0-.998-.096-1.424-.288a3.13 3.13 0 0 1-1.088-.8 3.977 3.977 0 0 1-.704-1.232 4.513 4.513 0 0 1-.224-1.552c0-.555.08-1.067.24-1.536.16-.47.389-.875.688-1.216a3.06 3.06 0 0 1 1.088-.8 3.428 3.428 0 0 1 1.424-.288c.49 0 .949.096 1.376.288.437.192.816.464 1.136.816.33.341.586.752.768 1.232.192.48.288.997.288 1.552 0 .554-.096 1.066-.288 1.536a3.609 3.609 0 0 1-.768 1.216c-.32.341-.699.608-1.136.8a3.49 3.49 0 0 1-1.376.272Zm-3.328 3.216c-.203 0-.358-.032-.464-.096a.463.463 0 0 1-.208-.24 1.35 1.35 0 0 1-.048-.384v-9.456c0-.15.016-.278.048-.384a.392.392 0 0 1 .192-.24c.106-.064.261-.096.464-.096.234 0 .405.037.512.112.117.074.186.208.208.4v9.648c.01.149 0 .277-.032.384a.391.391 0 0 1-.208.256c-.096.064-.251.096-.464.096Zm3.12-4.528c.448 0 .853-.107 1.216-.32.362-.224.645-.528.848-.912.213-.384.32-.822.32-1.312 0-.502-.107-.939-.32-1.312a2.132 2.132 0 0 0-.848-.864 2.295 2.295 0 0 0-1.216-.32c-.448 0-.854.106-1.216.32a2.39 2.39 0 0 0-.848.88c-.203.373-.304.805-.304 1.296 0 .49.101.928.304 1.312.213.384.496.688.848.912.362.213.768.32 1.216.32Zm12.067 1.36c-.235 0-.405-.048-.512-.144-.096-.096-.155-.246-.176-.448l.064-.8a3.58 3.58 0 0 1-.496.592 3.32 3.32 0 0 1-.88.576c-.363.16-.805.24-1.328.24-.512 0-.992-.102-1.44-.304a3.787 3.787 0 0 1-1.168-.848 4.191 4.191 0 0 1-.784-1.248 4.148 4.148 0 0 1-.272-1.504c0-.523.091-1.014.272-1.472a3.887 3.887 0 0 1 1.968-2.064 3.411 3.411 0 0 1 1.424-.304c.469 0 .869.064 1.2.192.331.117.613.277.848.48.245.192.459.41.64.656l-.032-.672c-.011-.235.037-.4.144-.496.117-.107.299-.16.544-.16.203 0 .347.032.432.096.096.064.16.154.192.272.032.117.048.261.048.432v6.176c0 .149-.016.282-.048.4a.4.4 0 0 1-.192.256c-.096.064-.245.096-.448.096Zm-3.088-1.328a2.13 2.13 0 0 0 1.168-.336c.363-.224.645-.523.848-.896.213-.384.32-.822.32-1.312 0-.502-.112-.939-.336-1.312a2.32 2.32 0 0 0-.864-.896 2.13 2.13 0 0 0-1.168-.336c-.501 0-.939.117-1.312.352a2.444 2.444 0 0 0-.864.912c-.213.384-.32.821-.32 1.312 0 .48.107.912.32 1.296.213.373.507.672.88.896.384.213.827.32 1.328.32Zm9.332 1.376a4.49 4.49 0 0 1-1.568-.272 3.958 3.958 0 0 1-1.28-.784 3.824 3.824 0 0 1-.864-1.216c-.203-.48-.304-1.024-.304-1.632 0-.608.101-1.147.304-1.616.213-.48.501-.891.864-1.232a3.743 3.743 0 0 1 1.264-.784 4.423 4.423 0 0 1 1.552-.272c.362 0 .72.058 1.072.176.352.106.661.25.928.432.277.17.474.352.592.544.106.138.181.256.224.352.053.085.058.186.016.304a.96.96 0 0 1-.176.24c-.075.064-.15.117-.224.16-.192.149-.384.17-.576.064a2.4 2.4 0 0 0-.4-.32 3.172 3.172 0 0 0-.448-.288 2.12 2.12 0 0 0-.496-.192 1.592 1.592 0 0 0-.512-.08c-.502 0-.944.106-1.328.32a2.153 2.153 0 0 0-.896.88c-.203.373-.304.81-.304 1.312 0 .501.101.938.304 1.312.213.373.506.666.88.88.384.213.821.32 1.312.32.224 0 .437-.027.64-.08a3.3 3.3 0 0 0 .592-.24c.181-.107.33-.219.448-.336l.272-.192a.45.45 0 0 1 .272-.08.45.45 0 0 1 .272.112c.096.064.197.165.304.304a.54.54 0 0 1 .144.304.437.437 0 0 1-.048.304 1.053 1.053 0 0 1-.256.288c-.171.17-.4.336-.688.496a4.71 4.71 0 0 1-.912.368 3.491 3.491 0 0 1-.976.144Zm10.429-1.28c.202.16.309.314.32.464.021.149-.054.325-.224.528-.128.149-.246.245-.352.288a.342.342 0 0 1-.304.016 1.09 1.09 0 0 1-.368-.224l-3.616-2.944v2.4c0 .149-.022.277-.064.384a.397.397 0 0 1-.192.24c-.096.064-.251.096-.464.096-.192 0-.342-.032-.448-.096a.387.387 0 0 1-.208-.24 2.198 2.198 0 0 1-.032-.4v-9.872c0-.15.016-.278.048-.384a.382.382 0 0 1 .208-.24c.106-.064.256-.096.448-.096.213 0 .368.032.464.096.096.053.16.138.192.256.032.106.048.234.048.384v5.664l2.64-2.528c.117-.118.229-.198.336-.24a.464.464 0 0 1 .336-.032c.117.032.234.117.352.256.192.213.282.394.272.544 0 .138-.096.298-.288.48l-2.592 2.448 3.488 2.752Zm7.983 1.232c-.234 0-.405-.048-.512-.144-.096-.096-.154-.246-.176-.448l.064-.8a3.53 3.53 0 0 1-.496.592 3.32 3.32 0 0 1-.88.576c-.362.16-.805.24-1.328.24-.512 0-.992-.102-1.44-.304a3.799 3.799 0 0 1-1.168-.848 4.212 4.212 0 0 1-.784-1.248 4.148 4.148 0 0 1-.272-1.504c0-.523.091-1.014.272-1.472a3.9 3.9 0 0 1 1.968-2.064 3.411 3.411 0 0 1 1.424-.304c.47 0 .87.064 1.2.192.331.117.614.277.848.48.246.192.459.41.64.656l-.032-.672c-.01-.235.038-.4.144-.496.118-.107.299-.16.544-.16.203 0 .347.032.432.096.096.064.16.154.192.272.032.117.048.261.048.432v6.176c0 .149-.016.282-.048.4a.4.4 0 0 1-.192.256c-.096.064-.245.096-.448.096Zm-3.088-1.328a2.13 2.13 0 0 0 1.168-.336c.363-.224.646-.523.848-.896a2.65 2.65 0 0 0 .32-1.312c0-.502-.112-.939-.336-1.312a2.32 2.32 0 0 0-.864-.896 2.13 2.13 0 0 0-1.168-.336c-.501 0-.938.117-1.312.352a2.46 2.46 0 0 0-.864.912c-.213.384-.32.821-.32 1.312 0 .48.107.912.32 1.296.214.373.507.672.88.896.384.213.827.32 1.328.32Zm8.948 4.48c-.374 0-.731-.043-1.072-.128a3.875 3.875 0 0 1-.896-.336 2.368 2.368 0 0 1-.608-.448c-.15-.16-.224-.31-.224-.448 0-.107.016-.198.048-.272.032-.064.08-.134.144-.208a1.77 1.77 0 0 1 .256-.224.452.452 0 0 1 .256-.064.51.51 0 0 1 .32.128c.106.096.234.197.384.304.16.117.352.218.576.304.234.096.522.144.864.144.352 0 .666-.054.944-.16.277-.107.517-.267.72-.48.202-.214.357-.475.464-.784.106-.299.16-.64.16-1.024l-.032-6.656c.01-.203.069-.347.176-.432.117-.086.298-.128.544-.128.202 0 .346.032.432.096a.34.34 0 0 1 .176.24c.032.096.048.218.048.368v6.624c0 .565-.091 1.066-.272 1.504a3.172 3.172 0 0 1-.768 1.136c-.331.309-.72.544-1.168.704a4.35 4.35 0 0 1-1.472.24Zm-.048-3.312c-.512 0-.987-.091-1.424-.272a3.655 3.655 0 0 1-1.136-.8 3.76 3.76 0 0 1-.752-1.2 4.275 4.275 0 0 1-.256-1.504c0-.544.085-1.046.256-1.504.181-.459.432-.859.752-1.2a3.26 3.26 0 0 1 1.12-.784 3.502 3.502 0 0 1 1.424-.288c.469 0 .896.09 1.28.272.384.181.709.442.976.784.277.33.485.725.624 1.184.138.458.208.97.208 1.536 0 .768-.123 1.434-.368 2-.246.565-.598 1.002-1.056 1.312-.459.309-1.008.464-1.648.464Zm.08-1.312c.426 0 .81-.107 1.152-.32.341-.214.613-.507.816-.88.202-.374.304-.806.304-1.296 0-.48-.102-.902-.304-1.264a2.158 2.158 0 0 0-.832-.864 2.243 2.243 0 0 0-1.168-.304c-.438 0-.827.101-1.168.304-.342.202-.608.49-.8.864-.182.362-.272.789-.272 1.28 0 .49.096.922.288 1.296.192.362.458.65.8.864.341.213.736.32 1.184.32Zm9.399 1.568c-.64 0-1.211-.107-1.712-.32a3.885 3.885 0 0 1-1.28-.864 3.934 3.934 0 0 1-.784-1.28 4.344 4.344 0 0 1-.272-1.552c0-.736.17-1.392.512-1.968a3.66 3.66 0 0 1 1.408-1.36c.608-.342 1.301-.512 2.08-.512.533 0 1.008.085 1.424.256.426.16.789.378 1.088.656.298.277.528.586.688.928.16.341.24.682.24 1.024 0 .544-.128.928-.384 1.152-.256.213-.571.32-.944.32h-4.624c-.011.469.112.874.368 1.216.266.33.597.586.992.768.405.181.81.272 1.216.272.298 0 .554-.016.768-.048a3.4 3.4 0 0 0 .56-.128c.16-.054.298-.107.416-.16.117-.054.218-.107.304-.16.096-.054.186-.091.272-.112a.393.393 0 0 1 .272.032c.096.032.17.101.224.208a.764.764 0 0 1 .128.24.876.876 0 0 1 .032.24c0 .149-.128.314-.384.496-.256.181-.614.336-1.072.464a5.6 5.6 0 0 1-1.536.192Zm-2.56-4.464h4.016c.202 0 .352-.027.448-.08.106-.054.16-.198.16-.432 0-.299-.091-.566-.272-.8a1.917 1.917 0 0 0-.752-.592 2.431 2.431 0 0 0-1.072-.224c-.47 0-.902.096-1.296.288a2.266 2.266 0 0 0-.912.752c-.224.32-.331.682-.32 1.088Zm14.95 4.384c-.501 0-.928-.048-1.28-.144a2.09 2.09 0 0 1-.848-.448 1.685 1.685 0 0 1-.48-.784c-.096-.331-.144-.736-.144-1.216v-7.072c0-.15.016-.278.048-.384a.392.392 0 0 1 .192-.24c.096-.064.246-.096.448-.096.203 0 .358.032.464.096a.382.382 0 0 1 .208.24c.032.096.048.218.048.368v7.088c0 .277.022.501.064.672.054.16.128.282.224.368a.826.826 0 0 0 .416.16c.171.021.379.032.624.032.171 0 .31.016.416.048a.392.392 0 0 1 .24.192c.054.096.08.24.08.432 0 .202-.032.357-.096.464a.347.347 0 0 1-.256.176 1.278 1.278 0 0 1-.368.048Zm-3.584-7.568 1.536.016 2.224-.032c.15 0 .278.016.384.048a.33.33 0 0 1 .24.192c.064.096.096.245.096.448 0 .202-.026.357-.08.464a.392.392 0 0 1-.24.192 1.34 1.34 0 0 1-.384.048l-2.192-.032-1.616.016c-.224 0-.378-.054-.464-.16-.074-.107-.112-.283-.112-.528 0-.235.048-.406.144-.512.096-.107.251-.16.464-.16Zm6.544 7.568c-.203 0-.357-.032-.464-.096a.387.387 0 0 1-.208-.24 2.29 2.29 0 0 1-.032-.4v-9.856c0-.15.016-.278.048-.384a.382.382 0 0 1 .208-.24c.107-.064.261-.096.464-.096.213 0 .368.032.464.096a.33.33 0 0 1 .192.24c.032.106.048.24.048.4v3.952c.256-.299.565-.566.928-.8.373-.235.827-.352 1.36-.352.629 0 1.189.149 1.68.448.501.288.896.698 1.184 1.232.299.533.448 1.168.448 1.904v3.472c0 .149-.016.277-.048.384a.397.397 0 0 1-.192.24c-.096.064-.251.096-.464.096-.203 0-.357-.032-.464-.096a.387.387 0 0 1-.208-.24 1.528 1.528 0 0 1-.048-.4v-3.472c0-.448-.075-.838-.224-1.168a1.68 1.68 0 0 0-.672-.768c-.288-.182-.656-.272-1.104-.272-.608 0-1.109.176-1.504.528-.384.341-.608.8-.672 1.376v3.792c0 .149-.016.277-.048.384a.387.387 0 0 1-.208.24c-.096.064-.251.096-.464.096Zm14.328-.016c-.235 0-.405-.048-.512-.144-.096-.096-.155-.246-.176-.448l.064-.8a3.58 3.58 0 0 1-.496.592 3.32 3.32 0 0 1-.88.576c-.363.16-.805.24-1.328.24-.512 0-.992-.102-1.44-.304a3.787 3.787 0 0 1-1.168-.848 4.191 4.191 0 0 1-.784-1.248 4.148 4.148 0 0 1-.272-1.504c0-.523.091-1.014.272-1.472a3.887 3.887 0 0 1 1.968-2.064 3.411 3.411 0 0 1 1.424-.304c.469 0 .869.064 1.2.192.331.117.613.277.848.48.245.192.459.41.64.656l-.032-.672c-.011-.235.037-.4.144-.496.117-.107.299-.16.544-.16.203 0 .347.032.432.096.096.064.16.154.192.272.032.117.048.261.048.432v6.176c0 .149-.016.282-.048.4a.4.4 0 0 1-.192.256c-.096.064-.245.096-.448.096Zm-3.088-1.328a2.13 2.13 0 0 0 1.168-.336c.363-.224.645-.523.848-.896.213-.384.32-.822.32-1.312 0-.502-.112-.939-.336-1.312a2.32 2.32 0 0 0-.864-.896 2.13 2.13 0 0 0-1.168-.336c-.501 0-.939.117-1.312.352a2.444 2.444 0 0 0-.864.912c-.213.384-.32.821-.32 1.312 0 .48.107.912.32 1.296.213.373.507.672.88.896.384.213.827.32 1.328.32Zm9.332 1.344c-.502 0-.928-.048-1.28-.144a2.084 2.084 0 0 1-.848-.448 1.685 1.685 0 0 1-.48-.784c-.096-.331-.144-.736-.144-1.216v-7.072c0-.15.016-.278.048-.384a.392.392 0 0 1 .192-.24c.096-.064.245-.096.448-.096.202 0 .357.032.464.096a.385.385 0 0 1 .208.24c.032.096.048.218.048.368v7.088c0 .277.021.501.064.672.053.16.128.282.224.368a.818.818 0 0 0 .416.16c.17.021.378.032.624.032.17 0 .309.016.416.048a.397.397 0 0 1 .24.192c.053.096.08.24.08.432 0 .202-.032.357-.096.464a.35.35 0 0 1-.256.176c-.107.032-.23.048-.368.048Zm-3.584-7.568 1.536.016 2.224-.032c.149 0 .277.016.384.048a.334.334 0 0 1 .24.192c.064.096.096.245.096.448 0 .202-.027.357-.08.464a.397.397 0 0 1-.24.192 1.35 1.35 0 0 1-.384.048l-2.192-.032-1.616.016c-.224 0-.379-.054-.464-.16-.075-.107-.112-.283-.112-.528 0-.235.048-.406.144-.512.096-.107.25-.16.464-.16Zm10.702 7.568c-.203 0-.352-.032-.448-.096a.461.461 0 0 1-.192-.256 1.35 1.35 0 0 1-.048-.384v-6.336c0-.15.016-.272.048-.368a.393.393 0 0 1 .192-.224c.106-.054.261-.08.464-.08.234 0 .4.048.496.144.106.085.16.24.16.464l-.064.688c.074-.16.186-.32.336-.48a2.64 2.64 0 0 1 .528-.432c.213-.128.437-.23.672-.304.234-.075.474-.112.72-.112.373 0 .704.069.992.208.298.128.565.314.8.56.234.245.432.549.592.912.213-.352.437-.651.672-.896.245-.256.522-.448.832-.576a2.509 2.509 0 0 1 1.04-.208c.608 0 1.114.154 1.52.464.416.298.725.725.928 1.28.213.544.32 1.2.32 1.968v3.344c0 .149-.016.277-.048.384a.34.34 0 0 1-.192.24c-.096.064-.251.096-.464.096-.203 0-.358-.032-.464-.096a.461.461 0 0 1-.192-.256 1.35 1.35 0 0 1-.048-.384v-3.344c0-.48-.059-.891-.176-1.232-.107-.352-.278-.624-.512-.816-.224-.192-.518-.288-.88-.288a1.85 1.85 0 0 0-1.024.288 1.786 1.786 0 0 0-.672.8c-.16.352-.24.768-.24 1.248v3.376c0 .16-.032.298-.096.416a.497.497 0 0 1-.288.24.827.827 0 0 1-.464.032c-.171-.022-.299-.064-.384-.128a.4.4 0 0 1-.16-.24 1.75 1.75 0 0 1-.032-.352v-3.344c0-.48-.059-.891-.176-1.232-.107-.352-.278-.624-.512-.816-.224-.192-.518-.288-.88-.288-.384 0-.726.101-1.024.304a1.894 1.894 0 0 0-.672.816 2.91 2.91 0 0 0-.24 1.216v3.36c0 .149-.016.277-.048.384a.39.39 0 0 1-.208.24c-.096.064-.251.096-.464.096Zm19.122-.016c-.234 0-.405-.048-.512-.144-.096-.096-.154-.246-.176-.448l.064-.8a3.53 3.53 0 0 1-.496.592 3.32 3.32 0 0 1-.88.576c-.362.16-.805.24-1.328.24-.512 0-.992-.102-1.44-.304a3.799 3.799 0 0 1-1.168-.848 4.212 4.212 0 0 1-.784-1.248 4.148 4.148 0 0 1-.272-1.504c0-.523.091-1.014.272-1.472a3.9 3.9 0 0 1 1.968-2.064 3.411 3.411 0 0 1 1.424-.304c.47 0 .87.064 1.2.192.331.117.614.277.848.48.246.192.459.41.64.656l-.032-.672c-.01-.235.038-.4.144-.496.118-.107.299-.16.544-.16.203 0 .347.032.432.096.096.064.16.154.192.272.032.117.048.261.048.432v6.176c0 .149-.016.282-.048.4a.4.4 0 0 1-.192.256c-.096.064-.245.096-.448.096Zm-3.088-1.328a2.13 2.13 0 0 0 1.168-.336c.363-.224.646-.523.848-.896a2.65 2.65 0 0 0 .32-1.312c0-.502-.112-.939-.336-1.312a2.32 2.32 0 0 0-.864-.896 2.13 2.13 0 0 0-1.168-.336c-.501 0-.938.117-1.312.352a2.46 2.46 0 0 0-.864.912c-.213.384-.32.821-.32 1.312 0 .48.107.912.32 1.296.214.373.507.672.88.896.384.213.827.32 1.328.32Zm11.636.096c.203.16.309.314.32.464.021.149-.053.325-.224.528-.128.149-.245.245-.352.288a.341.341 0 0 1-.304.016 1.1 1.1 0 0 1-.368-.224l-3.616-2.944v2.4c0 .149-.021.277-.064.384a.397.397 0 0 1-.192.24c-.096.064-.251.096-.464.096-.192 0-.341-.032-.448-.096a.387.387 0 0 1-.208-.24 2.29 2.29 0 0 1-.032-.4v-9.872c0-.15.016-.278.048-.384a.382.382 0 0 1 .208-.24c.107-.064.256-.096.448-.096.213 0 .368.032.464.096.096.053.16.138.192.256.032.106.048.234.048.384v5.664l2.64-2.528c.117-.118.229-.198.336-.24a.464.464 0 0 1 .336-.032c.117.032.235.117.352.256.192.213.283.394.272.544 0 .138-.096.298-.288.48l-2.592 2.448 3.488 2.752Zm5.04 1.328c-.64 0-1.211-.107-1.712-.32a3.885 3.885 0 0 1-1.28-.864 3.934 3.934 0 0 1-.784-1.28 4.344 4.344 0 0 1-.272-1.552c0-.736.17-1.392.512-1.968a3.66 3.66 0 0 1 1.408-1.36c.608-.342 1.301-.512 2.08-.512.533 0 1.008.085 1.424.256.426.16.789.378 1.088.656.298.277.528.586.688.928.16.341.24.682.24 1.024 0 .544-.128.928-.384 1.152-.256.213-.571.32-.944.32h-4.624c-.011.469.112.874.368 1.216.266.33.597.586.992.768.405.181.81.272 1.216.272.298 0 .554-.016.768-.048a3.4 3.4 0 0 0 .56-.128c.16-.054.298-.107.416-.16.117-.054.218-.107.304-.16.096-.054.186-.091.272-.112a.393.393 0 0 1 .272.032c.096.032.17.101.224.208a.764.764 0 0 1 .128.24.876.876 0 0 1 .032.24c0 .149-.128.314-.384.496-.256.181-.614.336-1.072.464a5.6 5.6 0 0 1-1.536.192Zm-2.56-4.464h4.016c.202 0 .352-.027.448-.08.106-.054.16-.198.16-.432 0-.299-.091-.566-.272-.8a1.917 1.917 0 0 0-.752-.592 2.431 2.431 0 0 0-1.072-.224c-.47 0-.902.096-1.296.288a2.266 2.266 0 0 0-.912.752c-.224.32-.331.682-.32 1.088Zm10.128 4.464a4.27 4.27 0 0 1-.8-.08 5.54 5.54 0 0 1-.816-.224 3.884 3.884 0 0 1-.688-.368 1.48 1.48 0 0 1-.432-.464.934.934 0 0 1-.096-.288.489.489 0 0 1 .048-.272c.043-.086.107-.171.192-.256.107-.128.214-.187.32-.176.107 0 .24.069.4.208.118.074.256.16.416.256.16.085.326.165.496.24.171.064.342.122.512.176.182.042.358.064.528.064.491 0 .886-.091 1.184-.272.299-.192.448-.443.448-.752a.9.9 0 0 0-.112-.464.957.957 0 0 0-.304-.32 1.878 1.878 0 0 0-.432-.24 4.59 4.59 0 0 0-.544-.176 11.496 11.496 0 0 0-.576-.176c-.288-.075-.57-.16-.848-.256a3.307 3.307 0 0 1-.752-.368 1.934 1.934 0 0 1-.544-.592c-.138-.246-.208-.555-.208-.928 0-.438.112-.816.336-1.136.224-.32.539-.566.944-.736.406-.182.88-.272 1.424-.272.235 0 .454.016.656.048.203.032.395.085.576.16.192.064.374.144.544.24.171.085.336.192.496.32.192.128.294.266.304.416.011.149-.048.304-.176.464a.69.69 0 0 1-.32.272c-.117.032-.234 0-.352-.096a3.52 3.52 0 0 0-.544-.336 4.032 4.032 0 0 0-.592-.24 2.054 2.054 0 0 0-.624-.096c-.266 0-.506.042-.72.128a1.014 1.014 0 0 0-.48.352.863.863 0 0 0-.16.512c0 .17.043.309.128.416.096.106.214.197.352.272.15.074.32.144.512.208l.624.16c.31.074.624.165.944.272.331.096.624.229.88.4.267.16.48.378.64.656.171.266.256.624.256 1.072 0 .704-.277 1.258-.832 1.664-.554.405-1.29.608-2.208.608ZM45.565 146.47c-.202 0-.357-.032-.464-.096a.397.397 0 0 1-.192-.24 1.35 1.35 0 0 1-.048-.384v-6.32c0-.15.016-.278.048-.384a.392.392 0 0 1 .192-.24c.107-.054.267-.08.48-.08.203 0 .352.032.448.096.096.053.16.133.192.24.032.106.048.24.048.4v6.304c0 .149-.016.277-.048.384a.388.388 0 0 1-.208.24c-.096.053-.245.08-.448.08Zm0-9.664c-.234 0-.41-.032-.528-.096a.564.564 0 0 1-.24-.304 1.864 1.864 0 0 1-.048-.448c0-.171.022-.315.064-.432a.435.435 0 0 1 .24-.272c.118-.064.294-.096.528-.096.224 0 .395.032.512.096.118.064.192.16.224.288.043.128.064.277.064.448 0 .17-.021.32-.064.448a.434.434 0 0 1-.224.272c-.117.064-.293.096-.528.096Zm6.13 9.664c-.501 0-.928-.048-1.28-.144a2.089 2.089 0 0 1-.848-.448 1.685 1.685 0 0 1-.48-.784c-.096-.331-.144-.736-.144-1.216v-7.072c0-.15.016-.278.048-.384a.392.392 0 0 1 .192-.24c.096-.064.245-.096.448-.096s.357.032.464.096a.383.383 0 0 1 .208.24c.032.096.048.218.048.368v7.088c0 .277.021.501.064.672.053.16.128.282.224.368a.822.822 0 0 0 .416.16c.17.021.379.032.624.032.17 0 .31.016.416.048a.393.393 0 0 1 .24.192c.053.096.08.24.08.432 0 .202-.032.357-.096.464a.349.349 0 0 1-.256.176c-.107.032-.23.048-.368.048Zm-3.584-7.568 1.536.016 2.224-.032c.15 0 .277.016.384.048a.332.332 0 0 1 .24.192c.064.096.096.245.096.448 0 .202-.027.357-.08.464a.393.393 0 0 1-.24.192 1.346 1.346 0 0 1-.384.048l-2.192-.032-1.616.016c-.224 0-.379-.054-.464-.16-.075-.107-.112-.283-.112-.528 0-.235.048-.406.144-.512.096-.107.25-.16.464-.16Zm13.662 7.648c-.64 0-1.21-.107-1.712-.32a3.891 3.891 0 0 1-1.28-.864 3.95 3.95 0 0 1-.784-1.28 4.357 4.357 0 0 1-.272-1.552c0-.736.17-1.392.512-1.968a3.66 3.66 0 0 1 1.408-1.36c.608-.342 1.301-.512 2.08-.512.533 0 1.008.085 1.424.256.427.16.79.378 1.088.656.299.277.528.586.688.928.16.341.24.682.24 1.024 0 .544-.128.928-.384 1.152-.256.213-.57.32-.944.32h-4.624c-.01.469.112.874.368 1.216.267.33.597.586.992.768.405.181.81.272 1.216.272.299 0 .555-.016.768-.048a3.4 3.4 0 0 0 .56-.128c.16-.054.299-.107.416-.16.117-.054.219-.107.304-.16a1.09 1.09 0 0 1 .272-.112.392.392 0 0 1 .272.032c.096.032.17.101.224.208a.751.751 0 0 1 .128.24.864.864 0 0 1 .032.24c0 .149-.128.314-.384.496-.256.181-.613.336-1.072.464a5.6 5.6 0 0 1-1.536.192Zm-2.56-4.464h4.016c.203 0 .352-.027.448-.08.107-.054.16-.198.16-.432 0-.299-.09-.566-.272-.8a1.913 1.913 0 0 0-.752-.592 2.429 2.429 0 0 0-1.072-.224c-.47 0-.901.096-1.296.288a2.266 2.266 0 0 0-.912.752 1.77 1.77 0 0 0-.32 1.088Zm14.145 4.368c-.235 0-.406-.048-.512-.144-.096-.096-.155-.246-.176-.448l.064-.8a3.58 3.58 0 0 1-.496.592 3.325 3.325 0 0 1-.88.576c-.363.16-.806.24-1.328.24-.512 0-.992-.102-1.44-.304a3.787 3.787 0 0 1-1.168-.848 4.198 4.198 0 0 1-.784-1.248 4.141 4.141 0 0 1-.272-1.504c0-.523.09-1.014.272-1.472a3.887 3.887 0 0 1 1.968-2.064 3.41 3.41 0 0 1 1.424-.304c.469 0 .869.064 1.2.192.33.117.613.277.848.48.245.192.458.41.64.656l-.032-.672c-.011-.235.037-.4.144-.496.117-.107.298-.16.544-.16.202 0 .346.032.432.096.096.064.16.154.192.272.032.117.048.261.048.432v6.176c0 .149-.016.282-.048.4a.4.4 0 0 1-.192.256c-.096.064-.246.096-.448.096Zm-3.088-1.328c.426 0 .816-.112 1.168-.336.362-.224.645-.523.848-.896.213-.384.32-.822.32-1.312 0-.502-.112-.939-.336-1.312a2.325 2.325 0 0 0-.864-.896 2.131 2.131 0 0 0-1.168-.336c-.502 0-.939.117-1.312.352a2.444 2.444 0 0 0-.864.912c-.214.384-.32.821-.32 1.312 0 .48.106.912.32 1.296.213.373.506.672.88.896.384.213.826.32 1.328.32Zm8.26 1.424c-.257 0-.523-.027-.8-.08a5.52 5.52 0 0 1-.817-.224 3.873 3.873 0 0 1-.688-.368 1.48 1.48 0 0 1-.432-.464.918.918 0 0 1-.096-.288.477.477 0 0 1 .048-.272.987.987 0 0 1 .192-.256c.107-.128.213-.187.32-.176.107 0 .24.069.4.208.118.074.256.16.416.256.16.085.326.165.496.24.17.064.341.122.512.176.181.042.358.064.528.064.49 0 .886-.091 1.184-.272.299-.192.448-.443.448-.752a.904.904 0 0 0-.112-.464.964.964 0 0 0-.304-.32 1.878 1.878 0 0 0-.432-.24 4.609 4.609 0 0 0-.544-.176 11.496 11.496 0 0 0-.576-.176 11.28 11.28 0 0 1-.848-.256 3.3 3.3 0 0 1-.752-.368 1.93 1.93 0 0 1-.544-.592c-.139-.246-.208-.555-.208-.928 0-.438.112-.816.336-1.136a2.12 2.12 0 0 1 .944-.736c.406-.182.88-.272 1.424-.272.235 0 .454.016.656.048.203.032.395.085.576.16.192.064.374.144.544.24.17.085.336.192.496.32.192.128.293.266.304.416.01.149-.048.304-.176.464a.694.694 0 0 1-.32.272c-.117.032-.234 0-.352-.096a3.554 3.554 0 0 0-.544-.336 4.045 4.045 0 0 0-.592-.24 2.06 2.06 0 0 0-.624-.096 1.91 1.91 0 0 0-.72.128 1.007 1.007 0 0 0-.48.352.858.858 0 0 0-.16.512c0 .17.043.309.128.416.096.106.213.197.352.272.15.074.32.144.512.208l.624.16c.31.074.624.165.944.272.33.096.624.229.88.4.267.16.48.378.64.656.17.266.256.624.256 1.072 0 .704-.277 1.258-.832 1.664-.554.405-1.29.608-2.208.608Zm5.838 3.024c-.256-.107-.405-.23-.448-.368-.042-.139-.005-.331.112-.576l4.24-9.52c.118-.246.24-.395.368-.448.139-.064.331-.043.576.064.256.117.4.245.432.384.043.138.011.325-.096.56l-4.272 9.568c-.106.245-.224.389-.352.432-.128.042-.314.01-.56-.096Zm1.584-4.128-3.664-5.648c-.138-.214-.192-.39-.16-.528.032-.15.155-.294.368-.432.235-.15.422-.203.56-.16.15.032.299.154.448.368l3.104 4.88-.656 1.52Zm12.524 1.024c-.501 0-.928-.048-1.28-.144a2.089 2.089 0 0 1-.848-.448 1.685 1.685 0 0 1-.48-.784c-.096-.331-.144-.736-.144-1.216v-7.072c0-.15.016-.278.048-.384a.392.392 0 0 1 .192-.24c.096-.064.246-.096.448-.096.203 0 .357.032.464.096a.383.383 0 0 1 .208.24c.032.096.048.218.048.368v7.088c0 .277.021.501.064.672.053.16.128.282.224.368a.822.822 0 0 0 .416.16c.17.021.379.032.624.032.17 0 .31.016.416.048a.393.393 0 0 1 .24.192c.053.096.08.24.08.432 0 .202-.032.357-.096.464a.349.349 0 0 1-.256.176c-.106.032-.23.048-.368.048Zm-3.584-7.568 1.536.016 2.224-.032c.15 0 .278.016.384.048a.332.332 0 0 1 .24.192c.064.096.096.245.096.448 0 .202-.026.357-.08.464a.393.393 0 0 1-.24.192 1.347 1.347 0 0 1-.384.048l-2.192-.032-1.616.016c-.224 0-.379-.054-.464-.16-.075-.107-.112-.283-.112-.528 0-.235.048-.406.144-.512.096-.107.25-.16.464-.16Zm9.456 7.664a3.839 3.839 0 0 1-1.504-.304 4.327 4.327 0 0 1-1.264-.832 4.011 4.011 0 0 1-.88-1.264 3.807 3.807 0 0 1-.32-1.568c0-.555.101-1.067.304-1.536a3.91 3.91 0 0 1 .848-1.264 3.95 3.95 0 0 1 1.248-.848c.48-.214.992-.32 1.536-.32.736 0 1.397.176 1.984.528.597.341 1.072.81 1.424 1.408.352.597.528 1.269.528 2.016 0 .586-.107 1.125-.32 1.616-.214.48-.502.896-.864 1.248a4.137 4.137 0 0 1-1.248.832c-.47.192-.96.288-1.472.288Zm-.032-1.392c.448 0 .864-.112 1.248-.336a2.587 2.587 0 0 0 1.28-2.272c0-.502-.112-.944-.336-1.328a2.265 2.265 0 0 0-.896-.896 2.65 2.65 0 0 0-1.312-.32c-.47 0-.896.112-1.28.336a2.654 2.654 0 0 0-.912.912 2.554 2.554 0 0 0-.336 1.312c0 .512.117.965.352 1.36.234.384.544.688.928.912.394.213.816.32 1.264.32Zm10.247 1.296c-.202 0-.357-.032-.464-.096a.397.397 0 0 1-.192-.24 2.29 2.29 0 0 1-.032-.4v-6.304c0-.16.016-.294.048-.4a.336.336 0 0 1 .192-.224c.096-.054.251-.08.464-.08.192 0 .336.026.432.08a.333.333 0 0 1 .208.208.665.665 0 0 1 .064.304l-.064.48c.075-.139.16-.278.256-.416.107-.139.235-.262.384-.368.16-.118.347-.214.56-.288a2.59 2.59 0 0 1 .816-.112c.16 0 .31.016.448.048.15.021.288.058.416.112.139.053.256.117.352.192a.736.736 0 0 1 .224.224.402.402 0 0 1 .096.272.891.891 0 0 1-.224.608c-.149.16-.304.24-.464.24a.72.72 0 0 1-.304-.048 21.332 21.332 0 0 0-.192-.128.708.708 0 0 0-.24-.112c-.106-.043-.277-.064-.512-.064-.16 0-.33.032-.512.096-.17.064-.336.16-.496.288a1.42 1.42 0 0 0-.4.464 1.485 1.485 0 0 0-.144.672v4.288c0 .149-.016.277-.048.384a.387.387 0 0 1-.208.24c-.096.053-.25.08-.464.08Zm8.96.08c-.64 0-1.211-.107-1.712-.32a3.896 3.896 0 0 1-1.28-.864 3.951 3.951 0 0 1-.784-1.28 4.366 4.366 0 0 1-.272-1.552c0-.736.171-1.392.512-1.968a3.667 3.667 0 0 1 1.408-1.36c.608-.342 1.301-.512 2.08-.512.533 0 1.008.085 1.424.256.427.16.789.378 1.088.656.299.277.528.586.688.928.16.341.24.682.24 1.024 0 .544-.128.928-.384 1.152-.256.213-.571.32-.944.32h-4.624c-.011.469.112.874.368 1.216.267.33.597.586.992.768.405.181.811.272 1.216.272.299 0 .555-.016.768-.048a3.4 3.4 0 0 0 .56-.128c.16-.054.299-.107.416-.16.117-.054.219-.107.304-.16.096-.054.187-.091.272-.112a.392.392 0 0 1 .272.032.385.385 0 0 1 .224.208.744.744 0 0 1 .128.24.876.876 0 0 1 .032.24c0 .149-.128.314-.384.496-.256.181-.613.336-1.072.464a5.6 5.6 0 0 1-1.536.192Zm-2.56-4.464h4.016c.203 0 .352-.027.448-.08.107-.054.16-.198.16-.432 0-.299-.091-.566-.272-.8a1.91 1.91 0 0 0-.752-.592 2.428 2.428 0 0 0-1.072-.224c-.469 0-.901.096-1.296.288a2.266 2.266 0 0 0-.912.752c-.224.32-.331.682-.32 1.088Zm8.257 4.368c-.203 0-.358-.032-.464-.096a.397.397 0 0 1-.192-.24 1.94 1.94 0 0 1-.032-.384v-6.352c0-.139.016-.256.048-.352a.393.393 0 0 1 .192-.224c.106-.054.261-.08.464-.08.16 0 .282.021.368.064.096.032.16.08.192.144a.51.51 0 0 1 .08.208c.01.074.016.144.016.208l-.032.736c.106-.182.24-.352.4-.512.16-.171.346-.32.56-.448a2.648 2.648 0 0 1 1.504-.432c.469 0 .901.085 1.296.256.394.16.73.4 1.008.72.288.309.506.682.656 1.12.16.437.24.933.24 1.488v3.472c0 .149-.016.277-.048.384a.34.34 0 0 1-.192.24c-.096.053-.246.08-.448.08-.214 0-.374-.032-.48-.096a.397.397 0 0 1-.192-.24 1.35 1.35 0 0 1-.048-.384v-3.472c0-.448-.075-.838-.224-1.168a1.691 1.691 0 0 0-.672-.768c-.299-.192-.678-.288-1.136-.288a2.25 2.25 0 0 0-1.152.288c-.32.181-.571.437-.752.768-.171.33-.256.72-.256 1.168v3.488c0 .149-.016.277-.048.384a.39.39 0 0 1-.208.24c-.096.053-.246.08-.448.08Zm11.546.016c-.48 0-.939-.096-1.376-.288a3.499 3.499 0 0 1-1.152-.816 4.151 4.151 0 0 1-.768-1.232 4.41 4.41 0 0 1-.272-1.568c0-.555.091-1.067.272-1.536.192-.47.448-.875.768-1.216a3.499 3.499 0 0 1 1.152-.816 3.385 3.385 0 0 1 1.376-.288c.523 0 .992.096 1.408.288.427.192.789.464 1.088.816.309.341.544.752.704 1.232.16.469.24.981.24 1.536a4.262 4.262 0 0 1-.24 1.552c-.16.469-.389.88-.688 1.232a3.049 3.049 0 0 1-1.088.816c-.416.192-.891.288-1.424.288Zm.208-1.36c.448 0 .848-.107 1.2-.32a2.25 2.25 0 0 0 .848-.88c.213-.384.32-.822.32-1.312 0-.502-.107-.939-.32-1.312a2.214 2.214 0 0 0-.848-.896 2.263 2.263 0 0 0-1.2-.32c-.448 0-.853.106-1.216.32a2.32 2.32 0 0 0-.864.896c-.203.373-.304.81-.304 1.312 0 .49.101.928.304 1.312.213.373.501.666.864.88.373.213.779.32 1.216.32Zm3.136 1.36c-.235 0-.405-.043-.512-.128-.107-.086-.171-.23-.192-.432v-10.016c0-.16.011-.294.032-.4a.392.392 0 0 1 .192-.24c.107-.064.261-.096.464-.096s.352.032.448.096a.382.382 0 0 1 .208.24c.032.106.048.234.048.384v9.856c0 .149-.016.282-.048.4a.397.397 0 0 1-.192.24c-.096.064-.245.096-.448.096Zm6.335.08c-.64 0-1.211-.107-1.712-.32a3.896 3.896 0 0 1-1.28-.864 3.951 3.951 0 0 1-.784-1.28 4.366 4.366 0 0 1-.272-1.552c0-.736.171-1.392.512-1.968a3.667 3.667 0 0 1 1.408-1.36c.608-.342 1.301-.512 2.08-.512.533 0 1.008.085 1.424.256.427.16.789.378 1.088.656.299.277.528.586.688.928.16.341.24.682.24 1.024 0 .544-.128.928-.384 1.152-.256.213-.571.32-.944.32h-4.624c-.011.469.112.874.368 1.216.267.33.597.586.992.768.405.181.811.272 1.216.272.299 0 .555-.016.768-.048a3.4 3.4 0 0 0 .56-.128c.16-.054.299-.107.416-.16.117-.054.219-.107.304-.16.096-.054.187-.091.272-.112a.392.392 0 0 1 .272.032.385.385 0 0 1 .224.208.744.744 0 0 1 .128.24.876.876 0 0 1 .032.24c0 .149-.128.314-.384.496-.256.181-.613.336-1.072.464a5.6 5.6 0 0 1-1.536.192Zm-2.56-4.464h4.016c.203 0 .352-.027.448-.08.107-.054.16-.198.16-.432 0-.299-.091-.566-.272-.8a1.91 1.91 0 0 0-.752-.592 2.428 2.428 0 0 0-1.072-.224c-.469 0-.901.096-1.296.288a2.266 2.266 0 0 0-.912.752c-.224.32-.331.682-.32 1.088Zm8.257 4.384c-.203 0-.358-.032-.464-.096a.397.397 0 0 1-.192-.24 2.198 2.198 0 0 1-.032-.4v-6.304c0-.16.016-.294.048-.4a.336.336 0 0 1 .192-.224c.096-.054.25-.08.464-.08.192 0 .336.026.432.08a.335.335 0 0 1 .208.208.679.679 0 0 1 .064.304l-.064.48c.074-.139.16-.278.256-.416.106-.139.234-.262.384-.368a2.08 2.08 0 0 1 .56-.288 2.59 2.59 0 0 1 .816-.112c.16 0 .309.016.448.048.149.021.288.058.416.112.138.053.256.117.352.192.096.064.17.138.224.224a.402.402 0 0 1 .096.272.896.896 0 0 1-.224.608c-.15.16-.304.24-.464.24a.717.717 0 0 1-.304-.048 21.332 21.332 0 0 0-.192-.128.727.727 0 0 0-.24-.112c-.107-.043-.278-.064-.512-.064-.16 0-.331.032-.512.096-.171.064-.336.16-.496.288-.16.117-.294.272-.4.464a1.485 1.485 0 0 0-.144.672v4.288c0 .149-.016.277-.048.384a.39.39 0 0 1-.208.24c-.096.053-.251.08-.464.08Zm13.346-.064a.794.794 0 0 1-.384-.08.45.45 0 0 1-.192-.176 1.393 1.393 0 0 1-.096-.24l-3.264-9.648c-.085-.256-.101-.448-.048-.576.064-.139.229-.251.496-.336.171-.054.309-.075.416-.064.117 0 .213.042.288.128.085.074.155.197.208.368l2.64 8.048 2.416-7.984a2.01 2.01 0 0 1 .112-.272.484.484 0 0 1 .224-.192.783.783 0 0 1 .384-.08c.181 0 .32.026.416.08a.52.52 0 0 1 .208.192.417.417 0 0 1 .096.208l2.464 8.096 2.624-8.064c.064-.182.133-.315.208-.4a.396.396 0 0 1 .288-.16c.128-.011.283.016.464.08.181.053.309.117.384.192.075.074.112.17.112.288 0 .117-.027.266-.08.448l-3.264 9.664a.746.746 0 0 1-.112.224.437.437 0 0 1-.208.176.7.7 0 0 1-.368.08.757.757 0 0 1-.368-.08.609.609 0 0 1-.224-.208l-.112-.256-2.512-8.08-2.512 8.08c-.021.074-.059.16-.112.256a.609.609 0 0 1-.224.208.7.7 0 0 1-.368.08Zm14.473.144c-.64 0-1.211-.107-1.712-.32a3.885 3.885 0 0 1-1.28-.864 3.934 3.934 0 0 1-.784-1.28 4.344 4.344 0 0 1-.272-1.552c0-.736.17-1.392.512-1.968a3.66 3.66 0 0 1 1.408-1.36c.608-.342 1.301-.512 2.08-.512.533 0 1.008.085 1.424.256.426.16.789.378 1.088.656.298.277.528.586.688.928.16.341.24.682.24 1.024 0 .544-.128.928-.384 1.152-.256.213-.571.32-.944.32h-4.624c-.011.469.112.874.368 1.216.266.33.597.586.992.768.405.181.81.272 1.216.272.298 0 .554-.016.768-.048a3.4 3.4 0 0 0 .56-.128c.16-.054.298-.107.416-.16.117-.054.218-.107.304-.16.096-.054.186-.091.272-.112a.393.393 0 0 1 .272.032c.096.032.17.101.224.208a.764.764 0 0 1 .128.24.876.876 0 0 1 .032.24c0 .149-.128.314-.384.496-.256.181-.614.336-1.072.464a5.6 5.6 0 0 1-1.536.192Zm-2.56-4.464h4.016c.202 0 .352-.027.448-.08.106-.054.16-.198.16-.432 0-.299-.091-.566-.272-.8a1.917 1.917 0 0 0-.752-.592 2.431 2.431 0 0 0-1.072-.224c-.47 0-.902.096-1.296.288a2.266 2.266 0 0 0-.912.752c-.224.32-.331.682-.32 1.088Zm11.504 4.384c-.522 0-.997-.096-1.424-.288a3.058 3.058 0 0 1-1.088-.816 4.017 4.017 0 0 1-.704-1.232 4.537 4.537 0 0 1-.224-1.552c0-.555.08-1.067.24-1.536.16-.48.39-.891.688-1.232.31-.352.672-.624 1.088-.816a3.435 3.435 0 0 1 1.424-.288c.491 0 .95.096 1.376.288.438.192.816.464 1.136.816.331.341.587.746.768 1.216.192.469.288.981.288 1.536 0 .565-.096 1.088-.288 1.568-.181.469-.437.88-.768 1.232-.32.352-.698.624-1.136.816a3.31 3.31 0 0 1-1.376.288Zm-.208-1.36c.448 0 .854-.107 1.216-.32.363-.214.646-.507.848-.88a2.65 2.65 0 0 0 .32-1.312c0-.502-.106-.939-.32-1.312a2.207 2.207 0 0 0-.848-.896 2.292 2.292 0 0 0-1.216-.32c-.448 0-.853.106-1.216.32a2.37 2.37 0 0 0-.848.896c-.202.373-.304.81-.304 1.312 0 .49.102.928.304 1.312.214.373.496.666.848.88.363.213.768.32 1.216.32Zm-3.12 1.376c-.202 0-.357-.032-.464-.096a.397.397 0 0 1-.192-.24 1.463 1.463 0 0 1-.048-.384v-9.872c0-.16.016-.294.048-.4a.392.392 0 0 1 .192-.24c.107-.064.262-.096.464-.096.203 0 .352.032.448.096.096.064.16.149.192.256.032.106.048.234.048.384v10.016c-.021.202-.085.346-.192.432-.096.096-.261.144-.496.144Zm14.001.016c-.832 0-1.579-.134-2.24-.4a5.046 5.046 0 0 1-1.712-1.168 5.358 5.358 0 0 1-1.088-1.84c-.256-.715-.384-1.51-.384-2.384 0-.832.128-1.584.384-2.256a4.911 4.911 0 0 1 1.136-1.728 5.157 5.157 0 0 1 1.76-1.12c.682-.278 1.45-.422 2.304-.432.33 0 .666.032 1.008.096.352.064.688.154 1.008.272.32.117.608.256.864.416.181.117.336.24.464.368.128.117.197.24.208.368.01.064 0 .144-.032.24a1.3 1.3 0 0 1-.128.272.94.94 0 0 1-.288.288.592.592 0 0 1-.288.08.624.624 0 0 1-.224-.08 4.134 4.134 0 0 1-.4-.24 4.52 4.52 0 0 0-.64-.304 4.03 4.03 0 0 0-.768-.224 4.522 4.522 0 0 0-.864-.08c-.822 0-1.536.165-2.144.496a3.41 3.41 0 0 0-1.408 1.424c-.32.618-.486 1.349-.496 2.192.01.874.181 1.632.512 2.272a3.6 3.6 0 0 0 1.392 1.488c.608.352 1.317.528 2.128.528.266 0 .538-.022.816-.064.277-.043.549-.102.816-.176a5.14 5.14 0 0 0 .768-.304v-3.088h-2.8c-.139 0-.262-.016-.368-.048a.393.393 0 0 1-.224-.192c-.043-.096-.064-.24-.064-.432s.026-.336.08-.432a.393.393 0 0 1 .224-.192c.096-.032.213-.048.352-.048h3.472c.213 0 .373.037.48.112.106.074.181.17.224.288.053.106.08.24.08.4v3.936c0 .17-.096.352-.288.544-.182.181-.443.352-.784.512-.246.128-.523.24-.832.336-.299.096-.619.17-.96.224-.342.053-.694.08-1.056.08Zm6.8-.032c-.214 0-.374-.032-.48-.096a.448.448 0 0 1-.224-.24 1.35 1.35 0 0 1-.048-.384v-9.712c0-.16.016-.294.048-.4a.392.392 0 0 1 .192-.24c.106-.064.266-.096.48-.096.213 0 .368.032.464.096a.385.385 0 0 1 .208.24c.032.106.048.234.048.384v9.104h5.36c.138 0 .256.016.352.048.096.032.17.096.224.192.064.096.096.24.096.432a.982.982 0 0 1-.08.432.396.396 0 0 1-.224.192 1.126 1.126 0 0 1-.352.048h-6.064Zm14.776.08a4.27 4.27 0 0 1-.8-.08 5.54 5.54 0 0 1-.816-.224 3.884 3.884 0 0 1-.688-.368 1.48 1.48 0 0 1-.432-.464.934.934 0 0 1-.096-.288.489.489 0 0 1 .048-.272c.043-.086.107-.171.192-.256.107-.128.214-.187.32-.176.107 0 .24.069.4.208.118.074.256.16.416.256.16.085.326.165.496.24.171.064.342.122.512.176.182.042.358.064.528.064.491 0 .886-.091 1.184-.272.299-.192.448-.443.448-.752a.9.9 0 0 0-.112-.464.957.957 0 0 0-.304-.32 1.878 1.878 0 0 0-.432-.24 4.59 4.59 0 0 0-.544-.176 11.496 11.496 0 0 0-.576-.176c-.288-.075-.57-.16-.848-.256a3.307 3.307 0 0 1-.752-.368 1.934 1.934 0 0 1-.544-.592c-.138-.246-.208-.555-.208-.928 0-.438.112-.816.336-1.136.224-.32.539-.566.944-.736.406-.182.88-.272 1.424-.272.235 0 .454.016.656.048.203.032.395.085.576.16.192.064.374.144.544.24.171.085.336.192.496.32.192.128.294.266.304.416.011.149-.048.304-.176.464a.69.69 0 0 1-.32.272c-.117.032-.234 0-.352-.096a3.52 3.52 0 0 0-.544-.336 4.032 4.032 0 0 0-.592-.24 2.054 2.054 0 0 0-.624-.096c-.266 0-.506.042-.72.128a1.014 1.014 0 0 0-.48.352.863.863 0 0 0-.16.512c0 .17.043.309.128.416.096.106.214.197.352.272.15.074.32.144.512.208l.624.16c.31.074.624.165.944.272.331.096.624.229.88.4.267.16.48.378.64.656.171.266.256.624.256 1.072 0 .704-.277 1.258-.832 1.664-.554.405-1.29.608-2.208.608Zm5.36-.08c-.203 0-.357-.032-.464-.096a.387.387 0 0 1-.208-.24 2.29 2.29 0 0 1-.032-.4v-9.856c0-.15.016-.278.048-.384a.382.382 0 0 1 .208-.24c.107-.064.261-.096.464-.096.213 0 .368.032.464.096a.33.33 0 0 1 .192.24c.032.106.048.24.048.4v3.952c.256-.299.565-.566.928-.8.373-.235.827-.352 1.36-.352.629 0 1.189.149 1.68.448.501.288.896.698 1.184 1.232.299.533.448 1.168.448 1.904v3.472c0 .149-.016.277-.048.384a.397.397 0 0 1-.192.24c-.096.064-.251.096-.464.096-.203 0-.357-.032-.464-.096a.387.387 0 0 1-.208-.24 1.528 1.528 0 0 1-.048-.4v-3.472c0-.448-.075-.838-.224-1.168a1.68 1.68 0 0 0-.672-.768c-.288-.182-.656-.272-1.104-.272-.608 0-1.109.176-1.504.528-.384.341-.608.8-.672 1.376v3.792c0 .149-.016.277-.048.384a.387.387 0 0 1-.208.24c-.096.064-.251.096-.464.096Zm14.328-.016c-.235 0-.405-.048-.512-.144-.096-.096-.155-.246-.176-.448l.064-.8a3.58 3.58 0 0 1-.496.592 3.32 3.32 0 0 1-.88.576c-.363.16-.805.24-1.328.24-.512 0-.992-.102-1.44-.304a3.787 3.787 0 0 1-1.168-.848 4.191 4.191 0 0 1-.784-1.248 4.148 4.148 0 0 1-.272-1.504c0-.523.091-1.014.272-1.472a3.887 3.887 0 0 1 1.968-2.064 3.411 3.411 0 0 1 1.424-.304c.469 0 .869.064 1.2.192.331.117.613.277.848.48.245.192.459.41.64.656l-.032-.672c-.011-.235.037-.4.144-.496.117-.107.299-.16.544-.16.203 0 .347.032.432.096.096.064.16.154.192.272.032.117.048.261.048.432v6.176c0 .149-.016.282-.048.4a.4.4 0 0 1-.192.256c-.096.064-.245.096-.448.096Zm-3.088-1.328a2.13 2.13 0 0 0 1.168-.336c.363-.224.645-.523.848-.896.213-.384.32-.822.32-1.312 0-.502-.112-.939-.336-1.312a2.32 2.32 0 0 0-.864-.896 2.13 2.13 0 0 0-1.168-.336c-.501 0-.939.117-1.312.352a2.444 2.444 0 0 0-.864.912c-.213.384-.32.821-.32 1.312 0 .48.107.912.32 1.296.213.373.507.672.88.896.384.213.827.32 1.328.32Zm9.028 1.344c-.48 0-.939-.096-1.376-.288a3.478 3.478 0 0 1-1.152-.816 4.151 4.151 0 0 1-.768-1.232 4.389 4.389 0 0 1-.272-1.568c0-.555.09-1.067.272-1.536.192-.47.448-.875.768-1.216.33-.352.714-.624 1.152-.816a3.385 3.385 0 0 1 1.376-.288c.522 0 .992.096 1.408.288.426.192.789.464 1.088.816.309.341.544.752.704 1.232.16.469.24.981.24 1.536.01.565-.07 1.082-.24 1.552-.16.469-.39.88-.688 1.232a3.058 3.058 0 0 1-1.088.816c-.416.192-.891.288-1.424.288Zm.208-1.36c.448 0 .848-.107 1.2-.32.362-.214.645-.507.848-.88.213-.384.32-.822.32-1.312 0-.502-.107-.939-.32-1.312a2.22 2.22 0 0 0-.848-.896 2.263 2.263 0 0 0-1.2-.32c-.448 0-.854.106-1.216.32a2.32 2.32 0 0 0-.864.896c-.203.373-.304.81-.304 1.312 0 .49.101.928.304 1.312.213.373.501.666.864.88.373.213.778.32 1.216.32Zm3.136 1.36c-.235 0-.406-.043-.512-.128-.107-.086-.171-.23-.192-.432v-10.016c0-.16.01-.294.032-.4a.392.392 0 0 1 .192-.24c.106-.064.261-.096.464-.096.202 0 .352.032.448.096a.385.385 0 0 1 .208.24c.032.106.048.234.048.384v9.856c0 .149-.016.282-.048.4a.397.397 0 0 1-.192.24c-.096.064-.246.096-.448.096Zm6.335.08c-.64 0-1.211-.107-1.712-.32a3.885 3.885 0 0 1-1.28-.864 3.934 3.934 0 0 1-.784-1.28 4.344 4.344 0 0 1-.272-1.552c0-.736.17-1.392.512-1.968a3.66 3.66 0 0 1 1.408-1.36c.608-.342 1.301-.512 2.08-.512.533 0 1.008.085 1.424.256.426.16.789.378 1.088.656.298.277.528.586.688.928.16.341.24.682.24 1.024 0 .544-.128.928-.384 1.152-.256.213-.571.32-.944.32h-4.624c-.011.469.112.874.368 1.216.266.33.597.586.992.768.405.181.81.272 1.216.272.298 0 .554-.016.768-.048a3.4 3.4 0 0 0 .56-.128c.16-.054.298-.107.416-.16.117-.054.218-.107.304-.16.096-.054.186-.091.272-.112a.393.393 0 0 1 .272.032c.096.032.17.101.224.208a.764.764 0 0 1 .128.24.876.876 0 0 1 .032.24c0 .149-.128.314-.384.496-.256.181-.614.336-1.072.464a5.6 5.6 0 0 1-1.536.192Zm-2.56-4.464h4.016c.202 0 .352-.027.448-.08.106-.054.16-.198.16-.432 0-.299-.091-.566-.272-.8a1.917 1.917 0 0 0-.752-.592 2.431 2.431 0 0 0-1.072-.224c-.47 0-.902.096-1.296.288a2.266 2.266 0 0 0-.912.752c-.224.32-.331.682-.32 1.088Zm8.256 4.384c-.202 0-.357-.032-.464-.096a.397.397 0 0 1-.192-.24 2.29 2.29 0 0 1-.032-.4v-6.304c0-.16.016-.294.048-.4a.336.336 0 0 1 .192-.224c.096-.054.251-.08.464-.08.192 0 .336.026.432.08a.333.333 0 0 1 .208.208.665.665 0 0 1 .064.304l-.064.48c.075-.139.16-.278.256-.416.107-.139.235-.262.384-.368.16-.118.347-.214.56-.288a2.59 2.59 0 0 1 .816-.112c.16 0 .31.016.448.048.15.021.288.058.416.112.139.053.256.117.352.192a.736.736 0 0 1 .224.224.402.402 0 0 1 .096.272.891.891 0 0 1-.224.608c-.149.16-.304.24-.464.24a.72.72 0 0 1-.304-.048 21.332 21.332 0 0 0-.192-.128.708.708 0 0 0-.24-.112c-.106-.043-.277-.064-.512-.064-.16 0-.33.032-.512.096-.17.064-.336.16-.496.288a1.42 1.42 0 0 0-.4.464 1.485 1.485 0 0 0-.144.672v4.288c0 .149-.016.277-.048.384a.387.387 0 0 1-.208.24c-.096.053-.25.08-.464.08Zm7.935.08c-.256 0-.523-.027-.8-.08a5.473 5.473 0 0 1-.816-.224 3.849 3.849 0 0 1-.688-.368 1.48 1.48 0 0 1-.432-.464.883.883 0 0 1-.096-.288.472.472 0 0 1 .048-.272.957.957 0 0 1 .192-.256c.106-.128.213-.187.32-.176.106 0 .24.069.4.208.117.074.256.16.416.256.16.085.325.165.496.24.17.064.341.122.512.176.181.042.357.064.528.064.49 0 .885-.091 1.184-.272.298-.192.448-.443.448-.752a.91.91 0 0 0-.112-.464.967.967 0 0 0-.304-.32 1.878 1.878 0 0 0-.432-.24 4.652 4.652 0 0 0-.544-.176 11.496 11.496 0 0 0-.576-.176c-.288-.075-.571-.16-.848-.256a3.287 3.287 0 0 1-.752-.368 1.921 1.921 0 0 1-.544-.592c-.139-.246-.208-.555-.208-.928 0-.438.112-.816.336-1.136.224-.32.538-.566.944-.736.405-.182.88-.272 1.424-.272.234 0 .453.016.656.048.202.032.394.085.576.16.192.064.373.144.544.24.17.085.336.192.496.32.192.128.293.266.304.416.01.149-.048.304-.176.464a.696.696 0 0 1-.32.272c-.118.032-.235 0-.352-.096a3.569 3.569 0 0 0-.544-.336 4.077 4.077 0 0 0-.592-.24 2.063 2.063 0 0 0-.624-.096c-.267 0-.507.042-.72.128a1.005 1.005 0 0 0-.48.352.856.856 0 0 0-.16.512c0 .17.042.309.128.416.096.106.213.197.352.272.149.074.32.144.512.208.202.053.41.106.624.16.309.074.624.165.944.272.33.096.624.229.88.4.266.16.48.378.64.656.17.266.256.624.256 1.072 0 .704-.278 1.258-.832 1.664-.555.405-1.291.608-2.208.608Zm5.455-.064c-.32 0-.544-.064-.672-.192s-.192-.342-.192-.64c0-.224.027-.395.08-.512a.488.488 0 0 1 .272-.272c.128-.064.299-.096.512-.096.32 0 .539.064.656.192.128.128.192.352.192.672 0 .213-.026.384-.08.512a.496.496 0 0 1-.272.256c-.117.053-.282.08-.496.08Z"
	/>
	<path
		fill="#CF8F8F"
		d="M45.902 177.993H44.57v-4.164c0-.906-.462-1.146-1.038-1.146-.66 0-1.206.324-1.662.81v4.5h-1.332v-6.246h1.146l.096.906h.174c.534-.57 1.176-1.05 2.196-1.05 1.098 0 1.752.552 1.752 1.878v4.512Zm7.825-3.138c0 1.98-.852 3.282-2.448 3.282-.906 0-1.518-.42-1.884-.948h-.084v3.084H47.98v-8.526h1.146l.084.804h.18c.42-.528 1.038-.948 1.938-.948 1.59 0 2.4 1.308 2.4 3.252Zm-4.416 1.608c.462.402.936.558 1.422.558 1.056 0 1.638-.696 1.638-2.166 0-1.44-.552-2.136-1.626-2.136-.492 0-.972.156-1.434.564v3.18Zm5.582-4.716h1.572l1.728 2.184 1.626-2.184h1.494l-2.412 3.078 2.508 3.168h-1.59l-1.8-2.28-1.674 2.28h-1.542l2.508-3.18-2.418-3.066Z"
	/>
	<path
		fill="#DCDCA5"
		d="M74.666 178.143c0 1.56-.858 2.274-2.346 2.274-1.476 0-2.268-.714-2.268-2.274v-.192h1.158v.282c0 .78.39 1.134 1.074 1.134.678 0 1.056-.354 1.056-1.134v-5.418h-2.862v-1.068l4.032-.144.162.162-.006 6.378Zm-1.848-8.652c0-.534.378-.858.936-.858.552 0 .936.324.936.858s-.384.87-.936.87c-.558 0-.936-.336-.936-.87Zm7.645 2.112c1.674 0 2.622.612 2.634 1.866l-1.206.09c-.072-.66-.552-.99-1.518-.99-.87 0-1.398.258-1.398.78 0 .504.51.69 1.83.978 1.536.33 2.394.69 2.394 1.83 0 1.2-.966 1.974-2.838 1.974-1.728 0-2.676-.51-2.94-1.938l1.224-.15c.252.96.918 1.098 1.782 1.098 1.032 0 1.434-.39 1.434-.834 0-.51-.528-.684-1.92-.984-1.416-.3-2.238-.762-2.238-1.866 0-1.14.876-1.854 2.76-1.854Zm7.243.144.09.906h.174c.606-.684 1.206-1.05 2.262-1.05.228 0 .42.018.606.06v1.254c-1.314 0-2.064.078-2.946.618v3.378h2.082v1.08h-4.98v-1.08h1.566v-4.086h-1.566v-1.08h2.712Zm14.871-.144c1.554 0 2.49.51 2.49 1.968v2.988c0 .426.15.534.69.468v.966a3.214 3.214 0 0 1-.846.126c-.792 0-1.044-.39-1.092-.894h-.132c-.474.474-1.116.912-2.064.912-1.122 0-1.848-.63-1.848-1.68 0-1.752 2.004-1.986 3.96-1.962v-.852c0-.894-.516-1.116-1.26-1.11-.732 0-1.266.234-1.272.96l-.006.252h-1.212v-.318c0-1.068.726-1.824 2.592-1.824Zm-1.416 4.68c0 .558.414.87 1.098.87.564 0 1.038-.216 1.476-.534v-1.38a4.732 4.732 0 0 0-.504-.03c-1.302 0-2.07.312-2.07 1.074Zm5.966-1.398c0-1.98.852-3.276 2.448-3.276.912 0 1.518.414 1.89.942h.078v-3.738h1.332v9.18h-1.146l-.09-.798h-.168c-.426.528-1.044.948-1.944.948-1.584 0-2.4-1.314-2.4-3.258Zm1.362 0c0 1.44.552 2.136 1.62 2.136.498 0 .972-.15 1.434-.558v-3.186c-.462-.408-.942-.558-1.422-.558-1.056 0-1.632.696-1.632 2.166Zm6.079 0c0-1.98.852-3.276 2.448-3.276.912 0 1.518.414 1.89.942h.078v-3.738h1.332v9.18h-1.146l-.09-.798h-.168c-.426.528-1.044.948-1.944.948-1.584 0-2.4-1.314-2.4-3.258Zm1.362 0c0 1.44.552 2.136 1.62 2.136.498 0 .972-.15 1.434-.558v-3.186c-.462-.408-.942-.558-1.422-.558-1.056 0-1.632.696-1.632 2.166Z"
	/>
	<path
		fill="url(#c)"
		d="M131.491 174.225c0-1.944.648-2.616 1.626-2.616.63 0 .996.282 1.326.69h.096c-.048-1.458-.606-2.13-1.866-2.13-1.53 0-2.412.984-2.412 3.336v2.79c0 2.568 1.152 3.204 2.766 3.204.954 0 1.758-.222 2.436-.468l.006.936c-.798.3-1.584.45-2.502.45-2.214 0-3.672-.912-3.672-4.104v-2.742c0-2.958 1.122-4.332 3.378-4.332 2.04 0 2.874 1.146 2.874 3.594v3.672c0 .534.096.612.42.528v.96a1.166 1.166 0 0 1-.57.144c-.468 0-.714-.27-.786-.726h-.168c-.318.42-.66.732-1.326.732-1.044 0-1.626-.774-1.626-2.748v-1.17Zm1.05.954c0 1.548.312 2.028 1.002 2.028.372 0 .69-.138.996-.612v-3.486c-.3-.432-.618-.57-.996-.57-.66 0-1.002.402-1.002 1.878v.762Zm10.483-.324c0 1.98-.852 3.282-2.448 3.282-.906 0-1.518-.42-1.884-.948h-.174l-.096.804h-1.146v-9.18h1.332v3.738h.078c.42-.528 1.038-.948 1.938-.948 1.59 0 2.4 1.308 2.4 3.252Zm-4.416 1.608c.462.402.936.558 1.422.558 1.056 0 1.638-.696 1.638-2.166 0-1.44-.552-2.136-1.626-2.136-.492 0-.972.156-1.434.564v3.18Zm8.63-4.716.09.906h.174c.606-.684 1.206-1.05 2.262-1.05.228 0 .42.018.606.06v1.254c-1.314 0-2.064.078-2.946.618v3.378h2.082v1.08h-4.98v-1.08h1.566v-4.086h-1.566v-1.08h2.712Zm7.429-.144c1.554 0 2.49.51 2.49 1.968v2.988c0 .426.15.534.69.468v.966a3.214 3.214 0 0 1-.846.126c-.792 0-1.044-.39-1.092-.894h-.132c-.474.474-1.116.912-2.064.912-1.122 0-1.848-.63-1.848-1.68 0-1.752 2.004-1.986 3.96-1.962v-.852c0-.894-.516-1.116-1.26-1.11-.732 0-1.266.234-1.272.96l-.006.252h-1.212v-.318c0-1.068.726-1.824 2.592-1.824Zm-1.416 4.68c0 .558.414.87 1.098.87.564 0 1.038-.216 1.476-.534v-1.38a4.732 4.732 0 0 0-.504-.03c-1.302 0-2.07.312-2.07 1.074Zm5.966-1.422c0-2.142 1.284-3.258 3.198-3.258 1.776 0 2.814.93 2.814 2.802v.57h-4.656c.036 1.386.678 2.094 1.794 2.094.714 0 1.266-.288 1.548-.936l1.289.198c-.431 1.236-1.523 1.806-2.843 1.806-1.86 0-3.144-1.122-3.144-3.276Zm1.422-.726h3.288c0-1.014-.648-1.47-1.554-1.47-.912 0-1.542.474-1.734 1.47Zm12.151.72c0 1.98-.852 3.282-2.448 3.282-.906 0-1.518-.42-1.884-.948h-.174l-.096.804h-1.146v-9.18h1.332v3.738h.078c.42-.528 1.038-.948 1.938-.948 1.59 0 2.4 1.308 2.4 3.252Zm-4.416 1.608c.462.402.936.558 1.422.558 1.056 0 1.638-.696 1.638-2.166 0-1.44-.552-2.136-1.626-2.136-.492 0-.972.156-1.434.564v3.18Zm11.857-1.578c0 2.22-1.38 3.252-3.066 3.252-1.68 0-3.066-1.032-3.066-3.252 0-2.22 1.386-3.282 3.066-3.282 1.686 0 3.066 1.062 3.066 3.282Zm-4.776 0c0 1.554.714 2.184 1.71 2.184 1.002 0 1.71-.63 1.71-2.184 0-1.56-.708-2.22-1.71-2.22-.996 0-1.71.66-1.71 2.22Zm7.742 4.308h-1.422l3.99-9.96h1.422l-3.99 9.96Zm11.917-4.338c0 1.98-.852 3.282-2.448 3.282-.906 0-1.518-.42-1.884-.948h-.084v3.084h-1.332v-8.526h1.146l.084.804h.18c.42-.528 1.038-.948 1.938-.948 1.59 0 2.4 1.308 2.4 3.252Zm-4.416 1.608c.462.402.936.558 1.422.558 1.056 0 1.638-.696 1.638-2.166 0-1.44-.552-2.136-1.626-2.136-.492 0-.972.156-1.434.564v3.18Zm11.858-1.578c0 2.22-1.38 3.252-3.066 3.252-1.68 0-3.066-1.032-3.066-3.252 0-2.22 1.386-3.282 3.066-3.282 1.686 0 3.066 1.062 3.066 3.282Zm-4.776 0c0 1.554.714 2.184 1.71 2.184 1.002 0 1.71-.63 1.71-2.184 0-1.56-.708-2.22-1.71-2.22-.996 0-1.71.66-1.71 2.22Zm12.139 1.176c-.354 1.446-1.542 2.076-2.934 2.076-1.866 0-3.12-1.122-3.12-3.276 0-2.214 1.338-3.258 3.186-3.258 1.554 0 2.718.72 2.868 2.244l-1.302.114c-.138-.876-.744-1.296-1.602-1.296-1.176 0-1.788.774-1.788 2.196 0 1.494.672 2.208 1.77 2.208.852 0 1.404-.426 1.638-1.194l1.284.186Zm3.103 1.932h-1.332v-9.18h1.332v5.31h1.122l1.938-2.376h1.494l-2.43 2.892v.078l2.64 3.276h-1.572l-2.262-2.802h-.93v2.802Zm5.726-3.132c0-2.142 1.284-3.258 3.198-3.258 1.776 0 2.814.93 2.814 2.802v.57h-4.656c.036 1.386.678 2.094 1.794 2.094.714 0 1.266-.288 1.548-.936l1.29.198c-.432 1.236-1.524 1.806-2.844 1.806-1.86 0-3.144-1.122-3.144-3.276Zm1.422-.726h3.288c0-1.014-.648-1.47-1.554-1.47-.912 0-1.542.474-1.734 1.47Zm7.669 1.818v-3.126h-1.716v-1.08h1.716v-1.872h1.332v1.872h2.712v1.08h-2.712v3.18c0 .768.36 1.086.9 1.086.558 0 .906-.342.906-1.08v-.336h.972v.27c0 1.452-.642 2.184-2.064 2.184-1.362 0-2.046-.654-2.046-2.178Zm6.668-1.344v-1.146h4.38v1.146h-4.38Zm9.667-3.006c1.674 0 2.622.612 2.634 1.866l-1.206.09c-.072-.66-.552-.99-1.518-.99-.87 0-1.398.258-1.398.78 0 .504.51.69 1.83.978 1.536.33 2.394.69 2.394 1.83 0 1.2-.966 1.974-2.838 1.974-1.728 0-2.676-.51-2.94-1.938l1.224-.15c.252.96.918 1.098 1.782 1.098 1.032 0 1.434-.39 1.434-.834 0-.51-.528-.684-1.92-.984-1.416-.3-2.238-.762-2.238-1.866 0-1.14.876-1.854 2.76-1.854Zm6.055 6.39h-1.332v-9.18h1.332v3.84h.162c.528-.57 1.134-1.05 2.142-1.05 1.086 0 1.728.552 1.728 1.878v4.512h-1.332v-4.164c0-.906-.462-1.146-1.038-1.146-.672 0-1.212.33-1.662.822v4.488Zm8.618-6.39c1.554 0 2.49.51 2.49 1.968v2.988c0 .426.15.534.69.468v.966a3.214 3.214 0 0 1-.846.126c-.792 0-1.044-.39-1.092-.894h-.132c-.474.474-1.116.912-2.064.912-1.122 0-1.848-.63-1.848-1.68 0-1.752 2.004-1.986 3.96-1.962v-.852c0-.894-.516-1.116-1.26-1.11-.732 0-1.266.234-1.272.96l-.006.252h-1.212v-.318c0-1.068.726-1.824 2.592-1.824Zm-1.416 4.68c0 .558.414.87 1.098.87.564 0 1.038-.216 1.476-.534v-1.38a4.732 4.732 0 0 0-.504-.03c-1.302 0-2.07.312-2.07 1.074Zm5.965-1.398c0-1.98.852-3.276 2.448-3.276.912 0 1.518.414 1.89.942h.078v-3.738h1.332v9.18h-1.146l-.09-.798h-.168c-.426.528-1.044.948-1.944.948-1.584 0-2.4-1.314-2.4-3.258Zm1.362 0c0 1.44.552 2.136 1.62 2.136.498 0 .972-.15 1.434-.558v-3.186c-.462-.408-.942-.558-1.422-.558-1.056 0-1.632.696-1.632 2.166Zm6.08-.024c0-2.142 1.284-3.258 3.198-3.258 1.776 0 2.814.93 2.814 2.802v.57h-4.656c.036 1.386.678 2.094 1.794 2.094.714 0 1.266-.288 1.548-.936l1.29.198c-.432 1.236-1.524 1.806-2.844 1.806-1.86 0-3.144-1.122-3.144-3.276Zm1.422-.726h3.288c0-1.014-.648-1.47-1.554-1.47-.912 0-1.542.474-1.734 1.47Zm8.923-2.388.09.906h.174c.606-.684 1.206-1.05 2.262-1.05.228 0 .42.018.606.06v1.254c-1.314 0-2.064.078-2.946.618v3.378h2.082v1.08h-4.98v-1.08h1.566v-4.086h-1.566v-1.08h2.712Z"
	/>
	<defs>
		<linearGradient
			id="a"
			x1="11.588"
			x2="313.588"
			y1="45.538"
			y2="45.538"
			gradientUnits="userSpaceOnUse"
		>
			<stop stop-color="#8500D7" />
			<stop offset="1" stop-color="#F44D4D" />
		</linearGradient>
		<linearGradient
			id="b"
			x1="1.17"
			x2="323.83"
			y1="135.829"
			y2="135.829"
			gradientUnits="userSpaceOnUse"
		>
			<stop stop-color="#8802D4" />
			<stop offset="1" stop-color="#F54D4D" />
		</linearGradient>
		<linearGradient
			id="c"
			x1="130.161"
			x2="285.5"
			y1="174.993"
			y2="174.993"
			gradientUnits="userSpaceOnUse"
		>
			<stop stop-color="#33C5F4" />
			<stop offset="1" stop-color="#A269CB" />
		</linearGradient>
	</defs>
</svg>
